<svg xmlns="http://www.w3.org/2000/svg" width="433.109" height="438.707" viewBox="0 0 433.109 438.707"><defs><style>.a{fill:#fff;}.a,.b{fill-rule:evenodd;}</style></defs><g transform="translate(-1244 -251)"><g transform="translate(1232 182.999)"><path class="a" d="M418.424,337.6c-6.271-45.243-20.614-89.171-22.673-135.093q-1.838-29.477-3.674-58.956c-.465-12.274-16.409-16.415-22.5-5.541-13.843-15.352-38.631-13.091-57.542-12.625C200.708,129.333,94.914,204.6,56.7,309.552a10.076,10.076,0,0,0,.4,7.548c-17.813,59.4,45.182,97.649,88.146,124.133,17.429,18.418,37.916,33.72,61.049,44.2A214.19,214.19,0,0,0,291.925,505.6c6.454.148,10.331-5.07,10.8-10.471,9.38-2.183,25.431.337,30.391-9.275,56.567-24.569,93.424-86.841,85.311-148.251Z"/><path class="b" d="M391.957,177.154c-.16-1.466,1.957-1.511,2.393-.323,3.585,9.767,7.3,19.467,10.142,29.48,2.738,9.651,4.711,19.522,6.707,29.35q4.969,24.465,8.517,49.223c5.034-3.932,11.62-4.29,17.82-1.23,2.911,1.435,4.024,5.23,3.326,8.174a66.7,66.7,0,0,1-2.066,7.013,18.509,18.509,0,0,1,4.333,5.676c2.855,5.8,1.936,11.888-.625,17.421.194.329.388.661.569,1.014,3.707,7.2,1.724,13.646-.984,20.669-2.029,5.257-.9,11.175-5.271,15.142a40.2,40.2,0,0,1-7.125,13.535,8.89,8.89,0,0,1-3.226,3.309,149.752,149.752,0,0,1-2.682,23.014c-5.944,29.578-24.812,55.934-48.169,74.521a154.979,154.979,0,0,1-78.663,32.573,143.4,143.4,0,0,1-42.1-1.268l-1.738-.31c-12.871-2.334-28.447-6.2-37.347-15.909-4.681-5.106-1.944-16.344,6.33-15.283a49.366,49.366,0,0,1,12.328,2.883c3.22,1.262,6.444,2.478,9.75,3.508a115.793,115.793,0,0,0,19.448,4.358,129.97,129.97,0,0,0,41.46-1.37c24.615-4.855,48.527-16.057,67.207-32.92,21.712-19.6,34.44-44.974,36.314-74.236,2.086-32.59-1.677-65.962-4.8-98.384q-2.437-25.3-6.172-50.455C395.207,209.952,393.751,193.6,391.957,177.154ZM199.8,71.92l1.052-.162c41.8-6.361,85.78-5.91,125.07,11.34a143.407,143.407,0,0,1,21.84,11.929c4.971-.519,9.971-.94,14.881-1.009,6.179-.081,12.209,3.129,12.969,9.379,5.79.72,11.121,2.85,14.531,7.111a13.752,13.752,0,0,1,2.67,5.579,45.747,45.747,0,0,1,10.359,3.83,10.785,10.785,0,0,1,4.92,12.091q-.492,1.451-1.118,2.832l-.322.687.19.26c3.21,5.16.98,11.93-3.94,15.01a37.643,37.643,0,0,1-12.05,5.04c.35,1.7.67,3.41.93,5.14.1.7-.8,1.2-1.2.51a103.615,103.615,0,0,0,3.811,9.941c.9,2.049-1.981,3.869-3.08,1.8-2.92-5.52-4.731-11.18-7.381-16.87a20.6,20.6,0,0,1-7.24-1.79,8.02,8.02,0,0,1-3.549-3.29c-.051.06-.08.13-.131.2-7.89,10.15-23.31,13.71-35.23,16.92a274.92,274.92,0,0,1-39.049,7.15c-22.961,2.73-46.1,3.24-69.17,4.3-1.528.069-3.053.146-4.579.22a63.583,63.583,0,0,1-33.819,14.881,61.519,61.519,0,0,1-20.727-1.016,21.015,21.015,0,0,1-9.275,5.515,42.168,42.168,0,0,1-18.978,32.73l.2.779c2.744,11.185,2.708,23.412-7.128,31.186a23.946,23.946,0,0,1-4.318,2.7l.336.773c5.081,11.874,6.7,24.99-2.847,34.843a8.826,8.826,0,0,1-13.575-1.536l-.142-.232c-.161-.273-.335-.535-.5-.8a2.443,2.443,0,0,1-1.243,1.227c-3.63,1.561-5.08.41-8.39-1.2a51.566,51.566,0,0,0-9.589-3.489,55.4,55.4,0,0,0-8.071-1.491c-17.06,6.52-28.08,26.52-25.46,45.29,1.42,10.22,7.031,20.34,16.81,24.58a26.768,26.768,0,0,0,13.94,2.01c6.27-.85,11.09-4.8,17.58-2.54a6.078,6.078,0,0,1,4.3,5.651,12.076,12.076,0,0,1-3.88,9.959c4.55,3.8,8.22,9.08,12.17,13.291,4.941,5.269,9.95,10.539,15.29,15.4a135.872,135.872,0,0,0,16.08,12.691l.6.393c7.116,4.634,16.083,8.749,16.423,18.437a8.243,8.243,0,0,1-4.06,7.089c-8.969,5.56-18.73-1.74-25.76-7.089q-4.245-3.227-8.23-6.691a11.71,11.71,0,0,1-5.71-1.04,40.82,40.82,0,0,1-3.79-1.92,13.4,13.4,0,0,1-10.96-1.99,30.26,30.26,0,0,1-13.35.35,22.337,22.337,0,0,1-9.75-4.92,21.015,21.015,0,0,1-17.65-1.97,18.3,18.3,0,0,1-7.43-8.47,7.606,7.606,0,0,1-1.229-3.934v-.556a18.148,18.148,0,0,1-13.6-5.449A18.816,18.816,0,0,1,43.871,391,24.628,24.628,0,0,1,31,382.3c-5.68-7.34-6.439-16.41-3.519-24.51-.191-.43-.361-.87-.511-1.31-4.53-6.39-7.52-14.1-7.28-21.83a20.127,20.127,0,0,1,.43-3.549,14.514,14.514,0,0,1-8.09-11.821A15.671,15.671,0,0,1,15.941,308a19.739,19.739,0,0,1-1.49-9.93,19.319,19.319,0,0,1,3.441-9.049,13.916,13.916,0,0,1,.159-2.8,26.206,26.206,0,0,1-.409-2.869c-.851-10.721,6.549-20.1,15.559-25.051a50.339,50.339,0,0,1,7.49-3.26c1.86-.66,4.66-.88,6.3-2.09-.07-.05.61-.929.73-1.4a17.529,17.529,0,0,0,.341-1.74,59.147,59.147,0,0,0,.019-7.52A271.953,271.953,0,0,1,49.4,208.4c2.21-20.84,7.661-41.23,18.28-59.44,8.91-15.26,21.11-28.15,35.1-38.84C130.647,88.834,165.421,77.262,199.8,71.92ZM70.66,331.088c-3.627-8.718,13.45-8.805,17.965-8.39l.133.013c10.163,1.011,26.052,5.9,30.21,16.154,1.721,4.245-3.374,8.846-7.451,7.45-3.991-1.366-6.229-4.3-9.432-6.867-.84-.674-1.716-1.3-2.608-1.91a9.476,9.476,0,0,0,2.265,3.91l.246.232c4.918,4.418-3.877,11.361-7.141,5.51a15.51,15.51,0,0,1-1.892-10.064,11.228,11.228,0,0,1,.848-2.907c-.324-.162-.643-.338-.971-.494l-.586-.272c-3.914-1.776-20.617-8.749-20.481-2.514C71.78,331.629,70.885,331.63,70.66,331.088Z"/></g><path class="b" d="M169.758,198.334a.686.686,0,0,1,.663,1.138c-2.137,1.9-3.494,5.429-5.053,7.837-1.483,2.291-2.913,4.558-4.217,6.956a77.447,77.447,0,0,0-4.013,8.209l-.225.574h0c.341.811.607,1.612.8,2.137l.056.149c1.944,4.965-2.137,10.483-6.74,11.871-7.873,2.374-14.628-4.092-14.816-11.781-.148-6.049,3.952-11.439,8.118-15.437a47.2,47.2,0,0,1,12.29-8.656,28.466,28.466,0,0,1,6.293-2.232C165.156,198.623,167.568,198.926,169.758,198.334ZM154.92,220.255a3.839,3.839,0,0,1,1.485,1.715A2.725,2.725,0,0,0,154.92,220.255Zm4.926-84.045c6.855,4.166,17.3,13.881,9.925,24.211-8.679,9.107-21.175-1.335-27.334-6.058-5.71-3.66-12.126,5.754-6.828,10.027,44.5,32.944,62.557-27.091,27.7-33.079C159.475,130.651,158.05,134.92,159.846,136.209ZM103.5,96.2l1.211-.1c5.253-.463,10.572-1.168,15.752.02,6.959,1.6,6.449,11.722,0,13.583-5.684,1.64-11.982.93-17.85.987-.923.009-1.844.033-2.767.048a13.84,13.84,0,0,1-2,5.975,29.918,29.918,0,0,1-2.788,3.849c-2.356,2.863-7.914,2.8-10.292,0a11.463,11.463,0,0,1-3.182-7.258,9.776,9.776,0,0,1,.253-2.23l-3.2.056c-7.838.12-15.736.066-23.432-1.179-2.738.566-4.978-4.373-1.2-5.852,10.272-4.017,21.748-5.2,32.648-6.406C92.253,97.074,97.885,96.646,103.5,96.2Zm87.512-4.151.279-.028c6.8-.7,14.291-1.9,21.1-1.208,10.171,1.034,10.152,14.782,0,15.81a60.757,60.757,0,0,1-11.569-.167,6.9,6.9,0,0,1-5.2,9.965c-4.481.6-9.126-3.753-7.655-8.424l.069-.206c.286-.811.545-1.716.85-2.61l-1.621-.137c-4.848-.428-11.577-1.3-13.36-5.131a2.793,2.793,0,0,1,.415-3.21c3.4-4.045,11.775-4.178,16.688-4.653ZM118.73,60.575c4.92-1.787,10.033,2.4,10.671,7.109.734,5.432-3.183,9.008-8.149,9.657l-.249.03c-10.961,1.207-21.84,3.415-32.816,4.663-4.985.566-10.007.939-15.025,1.073l-3.586.081c-4.395.111-9.108.211-13.165-1.3l.015-.027h0a1.511,1.511,0,0,1-.374-2.716c4.32-3.054,10.142-4.209,15.171-5.66,5.056-1.46,10.149-2.807,15.255-4.071C97.2,66.758,108.341,64.349,118.73,60.575Zm45.372,1.27c1.3-6.872,11.038-7.609,14.614-2.609,2.311.793,5.7,1.621,7.8,2.244,3.658,1.085,7.319,2.163,10.988,3.208,7.6,2.164,15.011,4.907,22.481,7.464a.685.685,0,0,1-.182,1.338,181.361,181.361,0,0,1-31.164,1.553l-2.15-.1C177.245,74.586,161.556,75.273,164.1,61.845Z" transform="translate(1375.876 343.487)"/><path class="b" d="M334.31,68.577a72.294,72.294,0,0,1-11.252,20.137c-19.327,16.367-38.108,7.3-47.645-14.878-3.623-15.677,6-32.563,16.192-44.1,14.723-14.756,38.75-7.012,45.519,10.53a53.936,53.936,0,0,1,.779,6.8,59.864,59.864,0,0,1-3.593,20.6M148.525,54.488c25.462-30.287,73.1-31.906,71.881,14.708C214.937,128.2,122.833,113.717,148.525,54.488ZM342.318,29.223a42.289,42.289,0,0,0-2.964-4.372c-.4-.238-.629-2.347-2.1-2.5-19.63-21.656-54.116-9.369-66.577,12.21a35.291,35.291,0,0,0-5.5,9.3c-12.277-2.252-26.59-1.814-38.009,2.823-11.322-29.565-45.6-32.2-68.19-19.572-14.05,6.91-23.161,21.381-36.826,29.331-32.122,2.312-66.6-4.885-98.138,3.172-24.876,5.172-4.081,17.768.091,9.362,29.738-8.786,64.97-1.362,95.846-3.341,3.21,5.431,9.368,9.875,15.5,9.685,6.628,58.746,92.3,49,95.254-3.217,3.352-5.3,7.521-10.372,13.488-13.674a28.971,28.971,0,0,0,6.507-2.039,16.556,16.556,0,0,1,11.932,3.845c10.863,65.186,73.453,57.594,84.639.488a7.435,7.435,0,0,0,1.322-2.444c3.828-5.062,13.2-6.944,11.7-15.49C358.967,34.236,348.173,34.338,342.318,29.223Z" transform="translate(1281.539 388.487)"/><g transform="translate(1323 489)"><path class="b" d="M279.528,190.863c2.019,1.915,6.4,6.13,10.6,7.983h3.927a19.25,19.25,0,0,0,2.493-.671,16.12,16.12,0,0,0,.75-8.757c-2.968-17.046-5.619-34.307-4.206-51.656,1.331-16.357,6.039-32.634,4.768-49.147-1.773-38.967-39.4-65.95-72.341-58.061a29.5,29.5,0,0,0-12.116,3.7C162.018,12.7,98.507,49.122,110.469,108.7c2.293,16.11,5.991,31.389,4.855,47.808a199.067,199.067,0,0,1-3.263,23.362c-1.1,5.8-4.019,12.956-1.339,18.683,10.766,6.8,21.99-7.331,29.181-19.458,3.764-10.192,6.891-20.627,10.417-30.9,6.362-18.461,7.836-28.657,28.831-33.691a71.978,71.978,0,0,0,24.1-13.665c5.335-2.555,8.376-7.673,10.194-12.848.906,2.548-.347,5.641-.574,8.286,15.227,20.182,34.07,16.361,40.849,30.395,5.187,13.211,8.1,27.3,12.071,40.965.543,1.871,10.59,20.238,13.734,23.22"/></g></g></svg>