<svg xmlns="http://www.w3.org/2000/svg" width="372.061" height="414.45" viewBox="0 0 372.061 414.45"><defs><style>.a{fill-rule:evenodd;}</style></defs><g transform="translate(-409.844 -40.104)"><path class="a" d="M179.628,69.532c60.225-13.987,127.884,4.784,169.682,51.03a7.331,7.331,0,0,1,.036,10.221c1.207.98,2.387,1.988,3.585,3a3.058,3.058,0,0,1,0,4.275c-1.062,1.062-3.268,1.28-4.275,0l-1.491-1.877c-.743-.938-1.477-1.879-2.185-2.843-.862.318-1.706.654-2.551.98a93.078,93.078,0,0,1,30.716,33.33c7.9,14.677,12.935,30.344,16.211,46.646,5.841,29.08,6.688,58.905,5.907,88.477l-.044,1.584c-1.008,35.645-4.484,71.88-19.515,104.656-12.054,26.268-33.475,50.422-60.334,61.922a105.109,105.109,0,0,1-48.9,8.26,154.476,154.476,0,0,1-26.314-4.148l-2.071-.515c-7.856-1.967-16-4.248-22.708-8.744-6.88-4.62-2.242-13.8,5.346-12.68,9.14,1.352,17.845,5.165,26.913,7.143a110.585,110.585,0,0,0,26.931,2.7,81.4,81.4,0,0,0,44-14.36c50.8-34.3,56.975-103.267,58.3-159,.644-27.231-.354-54.815-6.617-81.419-6.018-25.579-16.375-50.767-31.034-72.615a38.3,38.3,0,0,1-9.9,2.532c-6.132,3.686-13.425,3.784-20.515,3.785h-.988c-7.379-.009-14.759-.445-22.1-1.107-25.987-2.306-52.727-8.151-78.851-4.43l-1.067.156c-10.756,1.618-24.084,5.012-31.981,12.751-8.532,8.351-2.814,24.153,3.939,29.173,4.366,3.25,5.728,10.565,0,13.515-11.31,5.836-38.685,2.6-41.763,5.827-3.694,3.862-3.436,9.749-3.542,14.762l-.007.333a383.554,383.554,0,0,0,1.18,42.725c1.162,13.761,3.8,27.548,4.393,41.345.2,4.548-5.292,5.927-8.3,3.431-.59-.49-1.2-.953-1.806-1.371-5.455-3.867-11.655-5.5-18.308-6.535a1.336,1.336,0,0,1-.82-.46l-.079-.1-.708.581A25.012,25.012,0,0,1,111.5,298.3c.191.436-.218.989-.7.7-9.2-5.473-19.225-7.8-29.818-5.582-9.531,1.988-18.154,8.033-20.949,17.709a30.2,30.2,0,0,0,5.083,26.5c8.523,10.856,22.365,9.876,34.783,10.375,2.433.1,5.147,1.28,6.281,3.6,1.334,2.741,1.244,4.611,0,7.343a4.544,4.544,0,0,1-.663,1.062c1.051.87,2.046,1.822,3.015,2.792l3.242,3.266c2.217,2.239,4.423,4.5,6.55,6.813a277.082,277.082,0,0,1,17.645,21.449l.51.691c6.475,8.857,13.191,21.648,24.415,24.443,3.849.962,7.425,2.859,8.569,7.025s-1.552,8.205-5.174,9.948c-6.281,3.023-14.251-.572-19.434-4.384-11.177-8.234-18.48-21.665-25.345-33.49l-1.88-3.231c-3.535-6.1-6.989-12.275-9.936-18.684-1.679-3.658-3.486-7.289-5.047-11-.454-1.08-.908-2.178-1.262-3.3a9.622,9.622,0,0,1-1.489.209c-14.986.98-32.241-1.4-43.07-12.771-14.931-15.676-16.683-43.7.281-58.664a32.655,32.655,0,0,1,5.982-4.157,66.5,66.5,0,0,1-6.517-16.656,133.867,133.867,0,0,1-3.967-24.861c-1.207-17.146.8-34.6,4.92-51.257C72.466,133.805,118.341,83.765,179.628,69.532ZM71.1,320.044c-2.965-17.2,31.451-4.481,38.956-3.282l.22.033c8.608,1.194,3.81,16.295-4.662,11.8l-.258-.142c-4.584-2.627-9.625-4.509-14.432-6.734l-1.026-.482c-3.821-1.833-16.447-10.066-17.818-1.189A.512.512,0,0,1,71.1,320.044Z" transform="translate(364.844 -24.896)"/><path class="a" d="M169.758,198.334a.686.686,0,0,1,.663,1.138c-2.137,1.9-3.494,5.429-5.053,7.837-1.483,2.291-2.913,4.558-4.217,6.956a77.447,77.447,0,0,0-4.013,8.209l-.225.574h0c.341.811.607,1.612.8,2.137l.056.149c1.944,4.965-2.137,10.483-6.74,11.871-7.873,2.374-14.628-4.092-14.816-11.781-.148-6.049,3.952-11.439,8.118-15.437a47.2,47.2,0,0,1,12.29-8.656,28.466,28.466,0,0,1,6.293-2.232C165.156,198.623,167.568,198.926,169.758,198.334ZM154.92,220.255a3.839,3.839,0,0,1,1.485,1.715A2.725,2.725,0,0,0,154.92,220.255Zm4.926-84.045c6.855,4.166,17.3,13.881,9.925,24.211-8.679,9.107-21.175-1.335-27.334-6.058-5.71-3.66-12.126,5.754-6.828,10.027,44.5,32.944,62.557-27.091,27.7-33.079C159.475,130.651,158.05,134.92,159.846,136.209ZM103.5,96.2l1.211-.1c5.253-.463,10.572-1.168,15.752.02,6.959,1.6,6.449,11.722,0,13.583-5.684,1.64-11.982.93-17.85.987-.923.009-1.844.033-2.767.048a13.84,13.84,0,0,1-2,5.975,29.918,29.918,0,0,1-2.788,3.849c-2.356,2.863-7.914,2.8-10.292,0a11.463,11.463,0,0,1-3.182-7.258,9.776,9.776,0,0,1,.253-2.23l-3.2.056c-7.838.12-15.736.066-23.432-1.179-2.738.566-4.978-4.373-1.2-5.852,10.272-4.017,21.748-5.2,32.648-6.406C92.253,97.074,97.885,96.646,103.5,96.2Zm87.512-4.151.279-.028c6.8-.7,14.291-1.9,21.1-1.208,10.171,1.034,10.152,14.782,0,15.81a60.757,60.757,0,0,1-11.569-.167,6.9,6.9,0,0,1-5.2,9.965c-4.481.6-9.126-3.753-7.655-8.424l.069-.206c.286-.811.545-1.716.85-2.61l-1.621-.137c-4.848-.428-11.577-1.3-13.36-5.131a2.793,2.793,0,0,1,.415-3.21c3.4-4.045,11.775-4.178,16.688-4.653ZM118.73,60.575c4.92-1.787,10.033,2.4,10.671,7.109.734,5.432-3.183,9.008-8.149,9.657l-.249.03c-10.961,1.207-21.84,3.415-32.816,4.663-4.985.566-10.007.939-15.025,1.073l-3.586.081c-4.395.111-9.108.211-13.165-1.3l.015-.027h0a1.511,1.511,0,0,1-.374-2.716c4.32-3.054,10.142-4.209,15.171-5.66,5.056-1.46,10.149-2.807,15.255-4.071C97.2,66.758,108.341,64.349,118.73,60.575Zm45.372,1.27c1.3-6.872,11.038-7.609,14.614-2.609,2.311.793,5.7,1.621,7.8,2.244,3.658,1.085,7.319,2.163,10.988,3.208,7.6,2.164,15.011,4.907,22.481,7.464a.685.685,0,0,1-.182,1.338,181.361,181.361,0,0,1-31.164,1.553l-2.15-.1C177.245,74.586,161.556,75.273,164.1,61.845Z" transform="translate(515.781 147.487)"/><path class="a" d="M334.31,68.577a72.294,72.294,0,0,1-11.252,20.137c-19.327,16.367-38.108,7.3-47.645-14.878-3.623-15.677,6-32.563,16.192-44.1,14.723-14.756,38.75-7.012,45.519,10.53a53.936,53.936,0,0,1,.779,6.8,59.864,59.864,0,0,1-3.593,20.6M148.525,54.488c25.462-30.287,73.1-31.906,71.881,14.708C214.937,128.2,122.833,113.717,148.525,54.488ZM342.318,29.223a42.289,42.289,0,0,0-2.964-4.372c-.4-.238-.629-2.347-2.1-2.5-19.63-21.656-54.116-9.369-66.577,12.21a35.291,35.291,0,0,0-5.5,9.3c-12.277-2.252-26.59-1.814-38.009,2.823-11.322-29.565-45.6-32.2-68.19-19.572-14.05,6.91-23.161,21.381-36.826,29.331-32.122,2.312-66.6-4.885-98.138,3.172-24.876,5.172-4.081,17.768.091,9.362,29.738-8.786,64.97-1.362,95.846-3.341,3.21,5.431,9.368,9.875,15.5,9.685,6.628,58.746,92.3,49,95.254-3.217,3.352-5.3,7.521-10.372,13.488-13.674a28.971,28.971,0,0,0,6.507-2.039,16.556,16.556,0,0,1,11.932,3.845c10.863,65.186,73.453,57.594,84.639.488a7.435,7.435,0,0,0,1.322-2.444c3.828-5.062,13.2-6.944,11.7-15.49C358.967,34.236,348.173,34.338,342.318,29.223Z" transform="translate(421.444 192.487)"/></g></svg>