<svg xmlns="http://www.w3.org/2000/svg" xmlns:xlink="http://www.w3.org/1999/xlink" width="828.661" height="496.479" viewBox="0 0 828.661 496.479"><defs><style>.a{fill:#707070;}.b,.c,.f{fill:#fff;}.b{font-size:100px;}.b,.c{font-family:Adventure;letter-spacing:0.015em;}.c{font-size:150px;}.d,.e{fill:#030303;}.e,.g{stroke:#948787;stroke-width:4px;}.g{fill:#9b9696;}.h{font-size:50px;font-family:Roboto-Bold, Roboto;font-weight:700;}.i{stroke:none;}.j{fill:none;}.k{filter:url(#c);}.l{filter:url(#a);}</style><filter id="a" x="223.758" y="168.475" width="484" height="136" filterUnits="userSpaceOnUse"><feOffset dx="5" dy="10" input="SourceAlpha"/><feGaussianBlur result="b"/><feFlood/><feComposite operator="in" in2="b"/><feComposite in="SourceGraphic"/></filter><filter id="c" x="43.758" y="252.475" width="769" height="199" filterUnits="userSpaceOnUse"><feOffset dx="5" dy="10" input="SourceAlpha"/><feGaussianBlur result="d"/><feFlood/><feComposite operator="in" in2="d"/><feComposite in="SourceGraphic"/></filter></defs><g transform="translate(-1004.242 -308.525)"><path class="a" d="M450.9,54,0,0,51.3,162,0,405l450.9-77.626Z" transform="translate(1016 400)"/><path d="M450.9,54,0,0,51.3,162,0,405l450.9-77.626Z" transform="translate(1832.904 782.003) rotate(-180)"/><g class="l" transform="matrix(1, 0, 0, 1, 1004.24, 308.52)"><text class="b" transform="translate(223.76 274.48)"><tspan x="0" y="0">SURVIVE A</tspan></text></g><g class="k" transform="matrix(1, 0, 0, 1, 1004.24, 308.52)"><text class="c" transform="translate(43.76 411.48)"><tspan x="0" y="0">PANDEMIC</tspan></text></g><g transform="translate(-966.758 -67)"><g transform="translate(135.417 514.346)"><path class="d" d="M24.869,0,49.737,39.034H0Z" transform="translate(1889.101 59.125) rotate(-130)"/><path class="d" d="M24.869,0,49.737,39.034H0Z" transform="translate(1889.101 59.125) rotate(-130)"/><path class="d" d="M24.869,0,49.737,39.034H0Z" transform="translate(1864.594 29.567) rotate(-110)"/><path class="d" d="M24.869,0,49.737,39.034H0Z" transform="translate(1864.594 29.567) rotate(-110)"/><path class="d" d="M24.869,0,49.737,39.034H0Z" transform="translate(1851.419 -7.196) rotate(-90)"/><path class="d" d="M24.869,0,49.737,39.034H0Z" transform="translate(1851.419 -7.196) rotate(-90)"/><path class="d" d="M24.869,0,49.737,39.034H0Z" transform="matrix(0.342, -0.94, 0.94, 0.342, 1852.128, -45.949)"/><path class="d" d="M24.869,0,49.737,39.034H0Z" transform="matrix(0.342, -0.94, 0.94, 0.342, 1852.128, -45.949)"/><path class="d" d="M24.869,0,49.737,39.034H0Z" transform="matrix(0.766, -0.643, 0.643, 0.766, 1873.19, -96.958)"/><path class="d" d="M24.869,0,49.737,39.034H0Z" transform="matrix(0.766, -0.643, 0.643, 0.766, 1873.19, -96.958)"/><path class="d" d="M24.869,0,49.737,39.034H0Z" transform="translate(1902.748 -121.464) rotate(-20)"/><path class="d" d="M24.869,0,49.737,39.034H0Z" transform="translate(1902.748 -121.464) rotate(-20)"/><path class="d" d="M24.869,0,49.737,39.034H0Z" transform="translate(1939.511 -134.64)"/><path class="d" d="M24.869,0,49.737,39.034H0Z" transform="translate(1939.511 -134.64)"/><path class="d" d="M24.869,0,49.737,39.034H0Z" transform="translate(1978.265 -133.93) rotate(20)"/><path class="d" d="M24.869,0,49.737,39.034H0Z" transform="translate(1978.265 -133.93) rotate(20)"/><path class="d" d="M24.869,0,49.737,39.034H0Z" transform="translate(2016.206 -123.9) rotate(39)"/><path class="d" d="M24.869,0,49.737,39.034H0Z" transform="translate(2016.206 -123.9) rotate(39)"/><path class="d" d="M24.869,0,49.737,39.034H0Z" transform="translate(2045.902 -99.561) rotate(59)"/><path class="d" d="M24.869,0,49.737,39.034H0Z" transform="translate(2045.902 -99.561) rotate(59)"/><path class="d" d="M24.869,0,49.737,39.034H0Z" transform="translate(2065.85 -65.988) rotate(79)"/><path class="d" d="M24.869,0,49.737,39.034H0Z" transform="translate(2065.85 -65.988) rotate(79)"/><path class="d" d="M24.869,0,49.737,39.034H0Z" transform="translate(2072.549 -27.81) rotate(99)"/><path class="d" d="M24.869,0,49.737,39.034H0Z" transform="translate(2072.549 -27.81) rotate(99)"/><path class="d" d="M24.869,0,49.737,39.034H0Z" transform="translate(2068.779 13.991) rotate(119)"/><path class="d" d="M24.869,0,49.737,39.034H0Z" transform="translate(2068.779 13.991) rotate(119)"/><path class="d" d="M24.869,0,49.737,39.034H0Z" transform="matrix(-0.755, 0.656, -0.656, -0.755, 2049.966, 47.462)"/><path class="d" d="M24.869,0,49.737,39.034H0Z" transform="matrix(-0.755, 0.656, -0.656, -0.755, 2049.966, 47.462)"/><path class="d" d="M24.869,0,49.737,39.034H0Z" transform="translate(2020.367 72.937) rotate(159)"/><path class="d" d="M24.869,0,49.737,39.034H0Z" transform="translate(2020.367 72.937) rotate(159)"/><path class="d" d="M24.869,0,49.737,39.034H0Z" transform="translate(1983.933 86.163) rotate(179)"/><path class="d" d="M24.869,0,49.737,39.034H0Z" transform="translate(1983.933 86.163) rotate(179)"/><path class="d" d="M24.869,0,49.737,39.034H0Z" transform="matrix(-0.999, -0.035, 0.035, -0.999, 1989.782, 95.654)"/><path class="d" d="M24.869,0,49.737,39.034H0Z" transform="matrix(-0.999, -0.035, 0.035, -0.999, 1989.782, 95.654)"/><path class="d" d="M24.869,0,49.737,39.034H0Z" transform="matrix(-0.927, -0.375, 0.375, -0.927, 1951.418, 94.087)"/><path class="d" d="M24.869,0,49.737,39.034H0Z" transform="matrix(-0.927, -0.375, 0.375, -0.927, 1951.418, 94.087)"/><path class="d" d="M24.869,0,49.737,39.034H0Z" transform="matrix(-0.743, -0.669, 0.669, -0.743, 1915.282, 79.279)"/><path class="d" d="M24.869,0,49.737,39.034H0Z" transform="matrix(-0.743, -0.669, 0.669, -0.743, 1915.282, 79.279)"/><path class="d" d="M24.869,0,49.737,39.034H0Z" transform="translate(1886.957 52.821) rotate(-118)"/><path class="d" d="M24.869,0,49.737,39.034H0Z" transform="translate(1886.957 52.821) rotate(-118)"/><g class="e" transform="translate(1882.473 -101.031)"><circle class="i" cx="78.069" cy="78.069" r="78.069"/><circle class="j" cx="78.069" cy="78.069" r="76.069"/></g><circle class="d" cx="71.143" cy="71.143" r="71.143" transform="translate(1889.398 -94.105)"/></g><g transform="translate(123.417 514)"><path class="f" d="M24.869,0,49.737,39.034H0Z" transform="translate(1889.101 59.125) rotate(-130)"/><path class="f" d="M24.869,0,49.737,39.034H0Z" transform="translate(1889.101 59.125) rotate(-130)"/><path class="f" d="M24.869,0,49.737,39.034H0Z" transform="translate(1864.594 29.567) rotate(-110)"/><path class="f" d="M24.869,0,49.737,39.034H0Z" transform="translate(1864.594 29.567) rotate(-110)"/><path class="f" d="M24.869,0,49.737,39.034H0Z" transform="translate(1851.419 -7.196) rotate(-90)"/><path class="f" d="M24.869,0,49.737,39.034H0Z" transform="translate(1851.419 -7.196) rotate(-90)"/><path class="f" d="M24.869,0,49.737,39.034H0Z" transform="matrix(0.342, -0.94, 0.94, 0.342, 1852.128, -45.949)"/><path class="f" d="M24.869,0,49.737,39.034H0Z" transform="matrix(0.342, -0.94, 0.94, 0.342, 1852.128, -45.949)"/><path class="f" d="M24.869,0,49.737,39.034H0Z" transform="matrix(0.766, -0.643, 0.643, 0.766, 1873.19, -96.958)"/><path class="f" d="M24.869,0,49.737,39.034H0Z" transform="matrix(0.766, -0.643, 0.643, 0.766, 1873.19, -96.958)"/><path class="f" d="M24.869,0,49.737,39.034H0Z" transform="translate(1902.748 -121.464) rotate(-20)"/><path class="f" d="M24.869,0,49.737,39.034H0Z" transform="translate(1902.748 -121.464) rotate(-20)"/><path class="f" d="M24.869,0,49.737,39.034H0Z" transform="translate(1939.511 -134.64)"/><path class="f" d="M24.869,0,49.737,39.034H0Z" transform="translate(1939.511 -134.64)"/><path class="f" d="M24.869,0,49.737,39.034H0Z" transform="translate(1978.265 -133.93) rotate(20)"/><path class="f" d="M24.869,0,49.737,39.034H0Z" transform="translate(1978.265 -133.93) rotate(20)"/><path class="f" d="M24.869,0,49.737,39.034H0Z" transform="translate(2016.206 -123.9) rotate(39)"/><path class="f" d="M24.869,0,49.737,39.034H0Z" transform="translate(2016.206 -123.9) rotate(39)"/><path class="f" d="M24.869,0,49.737,39.034H0Z" transform="translate(2045.902 -99.561) rotate(59)"/><path class="f" d="M24.869,0,49.737,39.034H0Z" transform="translate(2045.902 -99.561) rotate(59)"/><path class="f" d="M24.869,0,49.737,39.034H0Z" transform="translate(2065.85 -65.988) rotate(79)"/><path class="f" d="M24.869,0,49.737,39.034H0Z" transform="translate(2065.85 -65.988) rotate(79)"/><path class="f" d="M24.869,0,49.737,39.034H0Z" transform="translate(2072.549 -27.81) rotate(99)"/><path class="f" d="M24.869,0,49.737,39.034H0Z" transform="translate(2072.549 -27.81) rotate(99)"/><path class="f" d="M24.869,0,49.737,39.034H0Z" transform="translate(2068.779 13.991) rotate(119)"/><path class="f" d="M24.869,0,49.737,39.034H0Z" transform="translate(2068.779 13.991) rotate(119)"/><path class="f" d="M24.869,0,49.737,39.034H0Z" transform="matrix(-0.755, 0.656, -0.656, -0.755, 2049.966, 47.462)"/><path class="f" d="M24.869,0,49.737,39.034H0Z" transform="matrix(-0.755, 0.656, -0.656, -0.755, 2049.966, 47.462)"/><path class="f" d="M24.869,0,49.737,39.034H0Z" transform="translate(2020.367 72.937) rotate(159)"/><path class="f" d="M24.869,0,49.737,39.034H0Z" transform="translate(2020.367 72.937) rotate(159)"/><path class="f" d="M24.869,0,49.737,39.034H0Z" transform="translate(1983.933 86.163) rotate(179)"/><path class="f" d="M24.869,0,49.737,39.034H0Z" transform="translate(1983.933 86.163) rotate(179)"/><path class="f" d="M24.869,0,49.737,39.034H0Z" transform="matrix(-0.999, -0.035, 0.035, -0.999, 1989.782, 95.654)"/><path class="f" d="M24.869,0,49.737,39.034H0Z" transform="matrix(-0.999, -0.035, 0.035, -0.999, 1989.782, 95.654)"/><path class="f" d="M24.869,0,49.737,39.034H0Z" transform="matrix(-0.927, -0.375, 0.375, -0.927, 1951.418, 94.087)"/><path class="f" d="M24.869,0,49.737,39.034H0Z" transform="matrix(-0.927, -0.375, 0.375, -0.927, 1951.418, 94.087)"/><path class="f" d="M24.869,0,49.737,39.034H0Z" transform="matrix(-0.743, -0.669, 0.669, -0.743, 1915.282, 79.279)"/><path class="f" d="M24.869,0,49.737,39.034H0Z" transform="matrix(-0.743, -0.669, 0.669, -0.743, 1915.282, 79.279)"/><path class="f" d="M24.869,0,49.737,39.034H0Z" transform="translate(1886.957 52.821) rotate(-118)"/><path class="f" d="M24.869,0,49.737,39.034H0Z" transform="translate(1886.957 52.821) rotate(-118)"/><g class="g" transform="translate(1882.473 -101.031)"><circle class="i" cx="78.069" cy="78.069" r="78.069"/><circle class="j" cx="78.069" cy="78.069" r="76.069"/></g><circle class="f" cx="71.143" cy="71.143" r="71.143" transform="translate(1889.398 -94.105)"/></g></g><text class="h" transform="matrix(0.966, -0.259, 0.259, 0.966, 1124.53, 425.635)"><tspan x="-52.722" y="0">how </tspan><tspan x="-22.217" y="35">to</tspan></text></g></svg>