<svg xmlns="http://www.w3.org/2000/svg" width="677.072" height="1039.896" viewBox="0 0 677.072 1039.896"><defs><style>.a{fill:#fff;}.a,.b{fill-rule:evenodd;}</style></defs><g transform="translate(-192 -40.104)"><path class="a" d="M696.466,351.2c0-7.345-10.166-20.382-10.183-27.034,8.547-1.528,15.692-13.107,13.8-20.358-3.336-2.55-12.079-7.569-15.7-9.913-22.032.668-13.659-29.984-16.152-45.564-2.511-15.244-4.375-31.183-8.049-46.512-6.526-12.266-9.589-26.018-15.826-38.223-2.786-4.045-7.288-7.753-8.636-12.452-13.646-14.9-32.432-23.838-47.891-36.461,6-1.921,5.6-10.013,5.212-15.209,1.4-6.779-.1-15.283-6.278-19.1-2.089-6.808-11.223-9.184-16.563-4.847-3.508-15.724-17.233-25.264-31.611-31.1.013-.046.025-.092.038-.138-14.5-5.755-31.881-8.624-46.348-5.389,7.637-85.094-57.537-88.218-90.614-81.067-16.918,3.658-42.3,15.045-48.071,30.876C350.339-2.35,341,26.474,339.666,35.668c-25.258-14.413-54.54-33.418-76.448-4.4-4.387,5.057-9.241,8.813-15.806,10.55-20.5,5.318-47.7,5.5-59.348,26.389-6.963,12.944-.7,21.472-2.571,34.42C93.234,167.415,16.134,406.093,33.445,517.133c4.164,39.738,24.5,110.073,74.681,101.3,25.6,28,455.226,28,499.527,0,36.466,9.538,73.52-5.226,88.812-40.152,19.42-47.891-1.16-99.612-4.807-148.74-2.215-12.4-5.511-22.249-7.273-34.948-.734-5.291,1.8-14.094,0-18.971C685.234,372.45,696.466,358.547,696.466,351.2Z" transform="translate(161.913 440.565)"/><path class="b" d="M493.292,14.414c1.015,4.345.088,9.244.258,13.7a93.491,93.491,0,0,0,1.405,12.7c7.79-4.1,17-4.624,25.873-3.3,11.483,1.706,24.771,5.482,33.77,13.154a28.207,28.207,0,0,1,5.6,6.612c1.85,2.968,3.031,6.321,5.963,8.448,4.537,3.29,10.161,4.564,14.522,8.21a22.688,22.688,0,0,1,7.791,15.009,29.828,29.828,0,0,1-.772,8.884c-.519,2.679-.264,3.778.441,6.357a5.155,5.155,0,0,1-2.226,5.438q5.54,3.8,10.917,7.868c20.858,15.83,38.495,35.563,50.721,58.782l.295.576.342.693c2.98,6.121,10.776,24.017,11.745,28.041.693,2.1,1.363,4.211,1.987,6.333q2.47,8.436,4.2,17.059l.31,1.568c.939,4.822,2.556,10.533,2.3,15.672q4.061,21.046,7.154,42.27a4.735,4.735,0,0,1-1.616,4.359c2.738.44,5.46.981,8.151,1.527l1.563.329.782.172c5.6,1.264,11.137,3.105,14.809,7.813a13.3,13.3,0,0,1,.064,16.766c-3.376,4.357-8.305,6.426-13.452,7.733-1.016.254-2.042.49-3.068.7a.638.638,0,0,1-.49-1.161l1.092-.6,1.49-.817c3.88-2.139,7.907-4.552,10.054-8.41,2.915-5.237.608-10.085-4.393-12.744-4.187-2.229-9.366-2.8-14.016-3.562l-1.92-.317a54.634,54.634,0,0,0-14.725-.724,24.861,24.861,0,0,0-12.109,4.575l-.321.252-.332.279c-3.041,2.635-7.414,8.556-1.678,10.262,4.384,1.3,9.726.974,14.333,1.225l.6.036c3.858.263,7.889.263,11.791.726a36.288,36.288,0,0,1,4.131.708c3.876.917,2.542,6.072-.872,6.435-.835.091-1.687.135-2.541.154-2.233,1.679-5.319,2.442-7.96,3.485q-3.785,1.5-7.606,2.96,3.295.15,6.581.554a.554.554,0,0,1,0,1.107c-5.265.536-10.53,1.116-15.776,1.851a169.073,169.073,0,0,0-24.08,4.929,154.741,154.741,0,0,0-16.984,6.034l-1.67.719-.69.3c-5.013,2.173-11.5,4.715-14.378,9.5-1.507,2.5-2.169,6.354-.044,8.742,2.271,2.572,7.029,2.277,10.211,2.4l.255.012q10.1.49,20.222.136a269.385,269.385,0,0,0,42.154-4.757c2.56-.5,3.667,3.341,1.089,3.94a224.778,224.778,0,0,1-49.718,5.987l-1.839,0a153.365,153.365,0,0,0-19.323,5.221l-1.272.425c-3.758,1.27-10.175,2.532-12.391,6.262-1.469,2.478-.953,4.176.5,5.329,2.559,2.024,8,2.4,10.655,2.505q15.93.6,31.878.244,7.966-.177,15.931-.58c5.192-.272,10.737-1.044,15.911-.546,2.225.218,2.969,3.486.555,4.095-6.381,1.616-13.537,1.474-20.129,1.681l-.758.025q-10.62.38-21.248.345-9.117-.037-18.224-.37l-5.367-.213-.95-.045a22.674,22.674,0,0,1-8.317-1.659c-2.342,3.921-.591,9.177,2.432,12.281,2.877,2.96,7.026,4.412,11,5.32.373.082.745.163,1.117.236,8.732,1.778,17.627,1.625,25.8,5.636,6.87,3.377,13.161,9,20.858,10.339,6.88,1.2,11.882-1.833,15.549-7.442.2-.309.4-.617.591-.927,2.885-4.647,4.964-9.766,8.006-14.323a30.236,30.236,0,0,1,5.446-6.371c.961-.827,7.7-4.4,8.75-5.473,4.529-4.648.517-14.423,1.7-20.25,1.379-6.781,7.343-9.168,10.919-14.424,6.8-10-11.846-19.37-6.272-30.308a.7.7,0,0,1,.281-.3.832.832,0,0,1,1.226.709c-.618,8.151,7.153,13.761,9.957,20.821,3.194,8.034-1.907,12.9-7.116,18.264-6.681,6.889-1.98,14.6-3.467,22.9a11.442,11.442,0,0,1-.912,2.9,4.673,4.673,0,0,1,2.216,3.518c2.291,19.424,4.754,38.789,8.775,57.945l.86,4.069,1.153,5.43c2.866,13.579,5.54,27.213,6.05,41.1a164.2,164.2,0,0,1,1.284,35.322c-2.868,35.9-22.938,73.46-59.4,84.478a53.042,53.042,0,0,1-26.051,1.426,41.439,41.439,0,0,1-10.856-3.986c.222,2.393.4,4.785.472,7.173a5.152,5.152,0,0,1,1.085,5.206,23.38,23.38,0,0,1-8.109-4.646l-.4-.358a76.756,76.756,0,0,1-2.075-16.876l-.055-1.607c-.055-1.561-.091-3.1-.146-4.593-.308-9.322-.09-18.662.39-27.975l.354-6.856c.811-15.991,1.47-31.943,1.027-47.977-.508-18.453-2.088-36.826-4.066-55.178-1.027-9.468-2.187-18.916-3.378-28.365-.952-7.606-2.55-15.794-2.577-23.636-6.11-1.307-12.108-3.813-15.867-8.941-3.985-5.437-4.574-12.39-1.035-17.964-3.421-4.683-.616-9.094,3.614-12.071-6.5-3.641-10.121-13.571-11.083-20.477-.654-4.739-.862-11.828,1.161-17.156a64.624,64.624,0,0,0-8.713.9,70.583,70.583,0,0,0-9.9,2.523l-1.646.544c-.831.279-1.766.606-2.693.99,5.874,9.711-1.67,18.517-11.346,21.031a50.679,50.679,0,0,1-5.618,1.088c-4.275.591-8.642.772-12.881,1.163-8.114.743-16.274,1.806-24.416,2.151a3.417,3.417,0,0,1-3.486-1.916c-.017-.017-.026-.027-.026-.044a2.482,2.482,0,0,1-.364-.98.636.636,0,0,0,.091.064,4.343,4.343,0,0,1,3.786-5.147c11.755-1.326,23.672-1.389,35.462-2.36l.755-.064c3.7-.319,8.06-.906,10.991-3.25a6.047,6.047,0,0,0,1.878-7.57,1.67,1.67,0,0,0-.045.2c-.082.507-.78.49-1.007.135a4.059,4.059,0,0,1-.681-3.032,12.12,12.12,0,0,0-2.877-2.423c-4.748-2.886-10.992-3.675-16.394-4.529a163,163,0,0,0-17.826-1.642,154.906,154.906,0,0,0-35.055,2.5.386.386,0,0,1-.209-.743,129.567,129.567,0,0,1,13.76-3.731c-.109-.019-.217-.036-.326-.064a.819.819,0,0,1-.563-1,.992.992,0,0,1,.073-.182c-1.98-.908-2.8-3.958-.408-5.192,7.469-3.858,16.238-5.6,24.435-7.19,7.87-1.516,15.82-2.578,23.781-3.521,13.461-1.579,28.138-1.543,41.09-5.792l.532-.179c5.274-1.819,11.571-5.505,11.941-11.729.544-9.414-13.444-6.962-19.271-6.735-15.947.608-31.877,1.716-47.752,3.422q-4.862.517-9.721,1.062-7.447.829-14.9,1.751c-2.768.346-5.6.8-8.451,1.235a18.159,18.159,0,0,1-2.632.454.248.248,0,0,1-.163-.036,73.5,73.5,0,0,1-12.363.9c-.464-.009-.753-.736-.263-.954a78.353,78.353,0,0,1,16.882-4.548c3.613-2.695,7.979-4.855,11.565-6.943,4.92-2.868,10.556-7.089,16.139-8.8a34.327,34.327,0,0,1,7.988-4.647,6.815,6.815,0,0,1-.89-4.166c.5-4.911,4.43-7.653,8.969-8.615a31.169,31.169,0,0,1,4.765-.589,3.181,3.181,0,0,1,1.352-2.487l.268-.2.19-.152c3.047-2.474,9.095-9.439,1.812-9.947-3.866-.273-7.134,2.56-10.211,4.475-6.39,3.985-12.571,4.184-19.868,3.194l-3.281-.471-.545-.073c-5.276-.693-10.628-.788-13.574,4.593-3.16,5.756-4.266,11-10.639,14.17-6.09,3.023-12.852,3.622-18.443,7.779-5.992,4.447-10.494,10.692-15.394,16.229-10.811,12.2-23.182,22.974-35.926,33.1l-2.267,1.8c-11.736,9.275-23.85,18.406-36.99,25.552a.6.6,0,0,1-.263.064.47.47,0,0,1-.3-.8c15.349-14.913,33.3-27,49.069-41.518,6.989-6.435,13.642-13.208,20.042-20.232,5.591-6.163,10.547-13.089,17.065-18.335a35.239,35.239,0,0,1,10.419-5.864c3.577-1.281,7.589-1.916,10.884-3.877,6.454-3.83,5.827-12.906,12.281-17.028,5.533-3.535,12.274-2.244,18.41-1.405l.733.1c3.976.526,8.087.971,11.882-.6,3.757-1.552,6.779-4.457,10.565-6,5.275-2.169,12.753-1.652,15.459,4.148,2.586,5.537-.944,10.547-5.065,14.223,5.618,1.017,10.547,3.731,10.965,9.267q6.181-.206,12.353-.427c14.351-.5,28.774-1.462,43.134-1.207a21.737,21.737,0,0,1-.491-4.5c-.008-.853.028-1.706.091-2.578a2.63,2.63,0,0,1,2.542-2.542l3.243-.347,1.086-.107c6.076-.575,12.871-.7,17.5,3.322,2.487,2.17,4.493,7.163,3.277,10.494a37.274,37.274,0,0,1,7.988,3.785,22.776,22.776,0,0,1,14.894.253l.582.208c3.484,1.279,8.422,3.7,10.316,7.158a913.56,913.56,0,0,0-18.574-92.545,172.412,172.412,0,0,0-18.863-34.58c-19.179-27.085-46.81-45.711-71.625-67.123-2.19,2.409-4.548,4.7-6.754,6.908l-.935.941c-4.493,4.55-9.179,8.9-13.969,13.139-10.011,8.85-20.548,17.018-31.01,25.317-21.09,16.731-40.158,34.5-56.022,56.341-.285.394-1.076.164-.855-.359,10.881-25.866,33.439-45.531,53.931-63.778,10.776-9.6,21.8-18.959,32.166-29.007,4.83-4.685,9.51-9.531,13.924-14.611l1.1-1.275c2.886-3.378,9.645-13.693,14.112-6.251a5.091,5.091,0,0,1,0,5.107,40.758,40.758,0,0,1-4.642,6.356q9.395,5.11,18.4,10.811a17.553,17.553,0,0,1,.062-5.891l.1-.644.438-2.516c.626-3.71.948-7.158-1.4-10.775-2.943-4.526-8.491-5.937-12.912-8.552-5.092-3.014-7.752-7.045-10.478-12.163-5.222-9.8-17.019-13.725-27.159-16.877l-1.275-.4c-9.369-2.9-19.5-4.458-28.872-1.667a90.247,90.247,0,0,0,3.466,12.05c1.53,4.181,5.023,8.829,4.666,13.345-.247,3.125-4,6.465-7.106,4.077-4.406-3.38-5.286-8.885-6.467-14.13a96.894,96.894,0,0,1-2.181-15.457,81.831,81.831,0,0,1,.551-14.966l.473-3.648.115-.847c.515-3.687,1.28-7.558,3.355-10.448A.432.432,0,0,1,493.292,14.414ZM365.463-6.32c.066.295.113.586.154.878A13.421,13.421,0,0,1,366-1.8a5.711,5.711,0,0,1-.094,1.3,27.159,27.159,0,0,1-.963,4.449Q363.47,9,361.585,13.933a112.982,112.982,0,0,1-9.02,18.626,102.236,102.236,0,0,1-24.627,27.326c1.858,1.533,3.674,3.128,5.494,4.694,8.8,7.57,17.355,15.483,25.645,23.605q22.083,21.639,43.235,44.166c6.948,7.42,13.768,14.938,20.55,22.506l.222.254.24.287c2.409,2.912,7.223,9.858,10.815,8.743,1.814-.565,3.723-3.27,4.96-4.561l2.276-2.374c.757-.794,1.509-1.592,2.249-2.4q19.873-21.774,37.555-45.343,8.616-11.531,16.647-23.487,4.125-6.145,8.095-12.4c2.558-4.03,4.626-8.362,8.4-11.37,2.767-2.207,6.6-.183,5.9,3.436-1.1,5.7-5.043,10.519-8.149,15.336q-4.679,7.261-9.578,14.377-9.426,13.7-19.63,26.829c-5.848,7.543-11.949,14.892-18.215,22.093l-1.713,1.961c-6.74,7.684-13.355,15.84-20.8,22.853-6.669,6.28-13.952,4.45-20.027-1.653-7.684-7.716-14.817-16.061-22.21-24.059q-22.16-23.974-44.783-47.535l-4.959-5.165c-5.78-6.034-11.538-12.106-17.144-18.289l-.724-.806c-6.394-7.193-12.9-16.2-21.986-19.861a.554.554,0,0,1,.294-1.067c5.819,1.076,10.677,4.007,15.2,7.51a179.585,179.585,0,0,0,10.849-21.059l-2.028-.88c-14.508-6.269-30.861-12.59-46.437-11.574-6.278.408-12.975,2.787-17.31,7.5-3.925,4.269-5.885,10.025-9.486,14.572-4.125,5.207-9.506,7.551-16.11,7.763l-3.211.1a59.511,59.511,0,0,0-10.98,1.126c-10.15,2.2-20.85,5.77-29.363,11.867-3.088,2.211-6.276,5.252-7.769,8.6a29.762,29.762,0,0,0-2.05,10.786c-.07,1.746.454,4.053.016,5.724.05-.192.073-.09.079.11a6.549,6.549,0,0,1,2.388,4.634A265.331,265.331,0,0,1,220.6,85.64c9.97-3.889,20.25-7.006,30.531-9.958,10.063-2.887,20.6-4.082,30.853-6.14a1.022,1.022,0,0,1,.543,1.97c-10.781,4.141-21.214,9.05-32.085,12.945s-21.651,8.111-32.2,12.8c-20.394,9.06-40.093,20.587-56.16,36.228-15.692,15.276-27.8,33.834-39.053,52.492a551.111,551.111,0,0,0-30.473,58.269A595.078,595.078,0,0,0,52.53,367.926c-8.571,41.36-13.36,84.2-11.765,126.47.757,20.078,3.21,40.171,8.913,59.481a162.858,162.858,0,0,0,10.446,26.846c4.545,9.073,10.668,17.155,14.818,26.383a4.9,4.9,0,0,1,.453,2.165c17.7,15.335,45.4,5,64.56-4.154,44.077-21.076,87.337-44.141,128.455-70.609,40.583-26.124,79.041-55.279,116.592-85.54a92.2,92.2,0,0,1-7.715-9.395,72.621,72.621,0,0,1-10.547-20.823,68.725,68.725,0,0,1-2.886-27.084l.227-2.57a197.467,197.467,0,0,1,3.531-25.669.178.178,0,0,1,.191-.154.233.233,0,0,1,.218.154c5.074,16.239,5.482,33.693,11.182,49.724a63.527,63.527,0,0,0,10.122,18.018,51.493,51.493,0,0,0,6.208,6.281,19.641,19.641,0,0,1,.644-2.959l.237-.77a16.017,16.017,0,0,1,1.17-2.889c-.717-.208-1.415-.435-2.1-.69-.546-.2-.664-1.079,0-1.224a31.316,31.316,0,0,1,5.564-.717,4.1,4.1,0,0,1,.88-.036c3.55-.11,7.163.145,10.585.2,5.927.091,11.836.2,17.753.463,11.329.489,24.117,2.659,35.264.026,10.13-2.4,20.114-9.149,28.237-15.5,7.1-5.554,12.572-12.153,18.462-18.734q-.635.1-1.262.187l-3.8.52c-4.794.641-10.486,1.143-14.291-1.161a1.9,1.9,0,0,1,.445-3.423c3.884-1.424,8.7-.244,12.843-.444a62.013,62.013,0,0,0,9.74-1.171c1.053-.218,2.1-.472,3.131-.772,7.588-2.188,16.5-9.885,10.476-18.29-.227-.318.026-.608.335-.664a.468.468,0,0,1,.4.1c6.861,5.681,3.294,15.865-3.2,20.232a26.507,26.507,0,0,1-7.37,3.331,3.144,3.144,0,0,1-.01,3.112c-5.082,9.06-13.687,17.019-21.748,23.419-8.277,6.571-17.826,12.77-28.092,15.676-11.855,3.339-24.88.826-36.906-.236q-9.777-.859-19.524-2.007c-1.744-.2-3.549-.353-5.384-.526a56.753,56.753,0,0,1,3.995,6.454,9.226,9.226,0,0,1-5.437,13.378,7.547,7.547,0,0,1-1.8.272c-1.526,3.059-5.157,5.311-8.515,4.157a21.77,21.77,0,0,1-4.22-2A837.358,837.358,0,0,1,325.8,507.049a1163.463,1163.463,0,0,1-132.976,82.2q-15.576,8.21-31.4,15.918l-9.082,4.378c-10.053,4.838-20.341,9.65-31.016,12.652a58.819,58.819,0,0,1-6.494,1.42,2.691,2.691,0,0,0-.024.575,20.852,20.852,0,0,1-5.255.122l-.34-.046c-13.086.915-27.084-2.28-35.5-11.838a4.32,4.32,0,0,1-5.255-.323c-9.08-7.124-14.492-17.971-19.242-28.327a184.817,184.817,0,0,1-11.365-32.668c-5.541-22.4-7.738-45.506-7.854-68.547C29.581,393.776,51.817,304.207,90.441,224.5a606.114,606.114,0,0,1,32.581-59.06c11.954-18.952,25.835-36.566,43.612-50.388a171.2,171.2,0,0,1,15.915-10.955c-3.682-1.824-5.144-6.465-5.4-10.588-.572-9.156.519-19.7,5.88-27.43,7.52-10.838,20.982-17.52,33.465-20.77a99.088,99.088,0,0,1,19.978-3.018c3.466-.173,7.066.4,10.49.023,3.021-.329,4.889-2.131,6.626-4.5,4.45-6.075,7.348-12.447,13.731-16.9,6.55-4.568,15.038-6.317,22.928-5.843,9.192.553,17.578,4.174,25.674,8.336,7.307,3.756,14.4,7.917,21.312,12.355q1.9-4.454,3.571-8.962a175.564,175.564,0,0,0,5.545-17.841c1.54-6.1,1.315-14.157,5.968-18.745C356.361-13.779,364.152-12.214,365.463-6.32ZM679.049,400.744l-.033.007c-9.411,5.577-13.911,19.513-18.341,25.6.362,2.042.616,4.121,1.116,6.054a101.294,101.294,0,0,0,4.376,13.072c3.05,7.47,6.871,14.586,10.4,21.829A171.232,171.232,0,0,1,684.36,485.2a3.587,3.587,0,0,0-.636.86c-2.349,4.4-4.188,3.535-8.522,2.574l0-.009c-2.479-7.587-6.054-14.713-9.267-21.993l-.782-1.778-.773-1.779a102.914,102.914,0,0,1-6.561-19.2,66.239,66.239,0,0,1-1.333-12.981,17.485,17.485,0,0,1-8.732,3.858c-7.614,1.15-14.508-3.618-20.711-7.444l-1.4-.855c-3.883-2.363-7.733-4.546-12.21-5.661-5.083-1.27-10.339-1.27-15.5-1.915-.618-.082-1.244-.163-1.871-.262,2.015,6.671,2.95,13.915,4.149,20.6,1.67,9.367,3.032,18.816,4.339,28.238,2.542,18.263,4.312,36.67,5.209,55.087.87,17.832.431,35.6-.214,53.425l-.321,8.693c-.258,7.078-.47,14.164-.345,21.244a6.729,6.729,0,0,1,1.036.163c3.576.835,6.017,4.483,9.286,6.109,6.9,3.431,15.231,3.386,22.574,1.652,16.7-3.958,30.589-15.613,39.737-29.854,10.984-17.083,15.014-37.189,14.886-57.3-.152-22.638-3.818-44.281-8.921-66.136l-.328-1.4C682.848,440.925,680.157,400.917,679.049,400.744ZM211.373,355.068c.1,6.089-2.381,12.6-3.741,18.518q-2.2,9.562-4.408,19.121l-1.332,5.708c-1.109,4.758-2.2,9.519-3.183,14.305-.806,3.935-1.144,9.12-2.464,13.458q23.564-9.531,47.151-18.976c19.352-7.805,38.794-15.394,58.192-23.073,19.325-7.643,38.54-16.338,58.256-22.874,4.693-1.561,7.87,5.927,3.376,8-20.023,9.287-41.209,16.557-61.723,24.691l-29.674,11.78c-27.2,10.793-54.423,21.535-81.781,31.906-18.635,7.063-37.2,14.333-55.95,21.04-8.941,3.2-17.962,6.219-26.858,9.531-7.452,2.777-15.512,6.9-18.272,14.9a.339.339,0,0,1-.654-.182c1.116-7.752,6.872-12.6,13.361-16.266,8.613-4.879,18.073-8.43,27.164-12.343l1.237-.536c18.565-8.1,37.28-15.865,56.05-23.5a3.976,3.976,0,0,1-.3-1.449l-.054.015c-.341-3.47,1.25-6.564,2.394-9.792l3.283-9.262c2.188-6.168,4.15-12.412,6.171-18.635q3.171-9.757,6.378-19.5c1.8-5.505,3.017-12.067,6.1-16.987C210.465,354.077,211.491,354.41,211.373,355.068Zm361.521-13.69-.234,1.182a28.269,28.269,0,0,0-.592,4.173,34.4,34.4,0,0,0,1.207,10.847,38.169,38.169,0,0,0,4.184,9.966c1.8,2.913,4.4,5.2,6.063,8.187a2.861,2.861,0,0,1,.326.944c.635-.263,1.263-.5,1.871-.691a136.261,136.261,0,0,1,15.484-3.957l-.832-.056-.537-.044c-8.766-.742-17.036-3.609-15.249-13.843,1.01-5.786,5.551-9.665,10.418-12.414l.61-.338c.262-.146.536-.291.8-.418-4.4-.744-7.6-1.661-13-2.569A69.888,69.888,0,0,0,572.894,341.379ZM172.431,215.317a285.615,285.615,0,0,1,20,54.718q3.543,13.608,5.978,27.469l.529,3.083.3,1.674c1.5,8.231,3.417,17.149,1.206,25.18-.722,2.624-5.078,3.663-6.3.824-3.68-8.569-3.162-18.418-4.229-27.587q-1.681-14.432-4.557-28.695a483.048,483.048,0,0,0-14.528-53.757l-.639-1.965C169.7,214.952,171.823,214.089,172.431,215.317Zm331.3,77.908c-2.569,1.208-5.138,2.315-7.407,3.422-.172.092-.353.172-.535.264q3.853-.654,7.724-1.226A10.669,10.669,0,0,1,503.736,293.225ZM604.248,284.5a2.7,2.7,0,0,0-1.024.605l-.144.145a4.041,4.041,0,0,0-1.064,2.568l.13.965a3.628,3.628,0,0,0,.934,1.6l.734.567a3.618,3.618,0,0,0,1.588.487l.244.009h.734a4.385,4.385,0,0,0,2.21-.919l.145-.145a4.193,4.193,0,0,0,1.064-2.355v-.211l-.13-.966a3.614,3.614,0,0,0-.772-1.429l-.162-.173-.734-.568a3.609,3.609,0,0,0-1.589-.487l-.243-.008h-.523A2.734,2.734,0,0,0,604.248,284.5Zm-23.617-1.228c-1.929.354-3.023,2.692-2.535,4.465a3.678,3.678,0,0,0,4.278,2.567l.188-.03A12.006,12.006,0,0,1,589,290.8a3.663,3.663,0,0,0,4.466-2.536,3.707,3.707,0,0,0-2.536-4.466A19.407,19.407,0,0,0,580.631,283.275ZM198.213,154.334c4.391,6.435,7.133,14.992,9.839,22.347l.27.732c2.876,7.73,5.649,15.521,8.235,23.353,5.165,15.635,11.894,32,13.138,48.512.23,3.048-4.436,4.27-5.788,1.568-3.885-7.767-5.974-15.864-8.274-24.191-2.193-7.941-4.478-15.855-6.762-23.77s-4.5-15.845-6.745-23.765c-2.189-7.705-5.236-16.273-5.737-24.292C196.324,153.786,197.709,153.593,198.213,154.334Zm99.127-51.816c5.863,4.069,10.664,10.021,15.626,15.112q7.55,7.746,14.919,15.651c8.221,8.813,16.293,17.771,24.63,26.477,16.614,17.35,35.41,33.317,58.34,41.472,5.549,1.972,3.118,10.877-2.443,8.862-23.454-8.5-42.883-24.224-60.021-42.011-8.876-9.21-17.021-19.054-24.962-29.072q-5.574-7.032-11.041-14.139l-2.175-2.855c-4.572-6.032-10.166-12.044-13.512-18.856C296.513,102.777,296.925,102.231,297.341,102.518Z" transform="translate(162.006 437.551)"/><path class="b" d="M179.628,69.532c60.225-13.987,127.884,4.784,169.682,51.03a7.331,7.331,0,0,1,.036,10.221c1.207.98,2.387,1.988,3.585,3a3.058,3.058,0,0,1,0,4.275c-1.062,1.062-3.268,1.28-4.275,0l-1.491-1.877c-.743-.938-1.477-1.879-2.185-2.843-.862.318-1.706.654-2.551.98a93.078,93.078,0,0,1,30.716,33.33c7.9,14.677,12.935,30.344,16.211,46.646,5.841,29.08,6.688,58.905,5.907,88.477l-.044,1.584c-1.008,35.645-4.484,71.88-19.515,104.656-12.054,26.268-33.475,50.422-60.334,61.922a105.109,105.109,0,0,1-48.9,8.26,154.476,154.476,0,0,1-26.314-4.148l-2.071-.515c-7.856-1.967-16-4.248-22.708-8.744-6.88-4.62-2.242-13.8,5.346-12.68,9.14,1.352,17.845,5.165,26.913,7.143a110.585,110.585,0,0,0,26.931,2.7,81.4,81.4,0,0,0,44-14.36c50.8-34.3,56.975-103.267,58.3-159,.644-27.231-.354-54.815-6.617-81.419-6.018-25.579-16.375-50.767-31.034-72.615a38.3,38.3,0,0,1-9.9,2.532c-6.132,3.686-13.425,3.784-20.515,3.785h-.988c-7.379-.009-14.759-.445-22.1-1.107-25.987-2.306-52.727-8.151-78.851-4.43l-1.067.156c-10.756,1.618-24.084,5.012-31.981,12.751-8.532,8.351-2.814,24.153,3.939,29.173,4.366,3.25,5.728,10.565,0,13.515-11.31,5.836-38.685,2.6-41.763,5.827-3.694,3.862-3.436,9.749-3.542,14.762l-.007.333a383.554,383.554,0,0,0,1.18,42.725c1.162,13.761,3.8,27.548,4.393,41.345.2,4.548-5.292,5.927-8.3,3.431-.59-.49-1.2-.953-1.806-1.371-5.455-3.867-11.655-5.5-18.308-6.535a1.336,1.336,0,0,1-.82-.46l-.079-.1-.708.581A25.012,25.012,0,0,1,111.5,298.3c.191.436-.218.989-.7.7-9.2-5.473-19.225-7.8-29.818-5.582-9.531,1.988-18.154,8.033-20.949,17.709a30.2,30.2,0,0,0,5.083,26.5c8.523,10.856,22.365,9.876,34.783,10.375,2.433.1,5.147,1.28,6.281,3.6,1.334,2.741,1.244,4.611,0,7.343a4.544,4.544,0,0,1-.663,1.062c1.051.87,2.046,1.822,3.015,2.792l3.242,3.266c2.217,2.239,4.423,4.5,6.55,6.813a277.082,277.082,0,0,1,17.645,21.449l.51.691c6.475,8.857,13.191,21.648,24.415,24.443,3.849.962,7.425,2.859,8.569,7.025s-1.552,8.205-5.174,9.948c-6.281,3.023-14.251-.572-19.434-4.384-11.177-8.234-18.48-21.665-25.345-33.49l-1.88-3.231c-3.535-6.1-6.989-12.275-9.936-18.684-1.679-3.658-3.486-7.289-5.047-11-.454-1.08-.908-2.178-1.262-3.3a9.622,9.622,0,0,1-1.489.209c-14.986.98-32.241-1.4-43.07-12.771-14.931-15.676-16.683-43.7.281-58.664a32.655,32.655,0,0,1,5.982-4.157,66.5,66.5,0,0,1-6.517-16.656,133.867,133.867,0,0,1-3.967-24.861c-1.207-17.146.8-34.6,4.92-51.257C72.466,133.805,118.341,83.765,179.628,69.532ZM71.1,320.044c-2.965-17.2,31.451-4.481,38.956-3.282l.22.033c8.608,1.194,3.81,16.295-4.662,11.8l-.258-.142c-4.584-2.627-9.625-4.509-14.432-6.734l-1.026-.482c-3.821-1.833-16.447-10.066-17.818-1.189A.512.512,0,0,1,71.1,320.044Z" transform="translate(364.844 -24.896)"/><path class="b" d="M169.758,198.334a.686.686,0,0,1,.663,1.138c-2.137,1.9-3.494,5.429-5.053,7.837-1.483,2.291-2.913,4.558-4.217,6.956a77.447,77.447,0,0,0-4.013,8.209l-.225.574h0c.341.811.607,1.612.8,2.137l.056.149c1.944,4.965-2.137,10.483-6.74,11.871-7.873,2.374-14.628-4.092-14.816-11.781-.148-6.049,3.952-11.439,8.118-15.437a47.2,47.2,0,0,1,12.29-8.656,28.466,28.466,0,0,1,6.293-2.232C165.156,198.623,167.568,198.926,169.758,198.334ZM154.92,220.255a3.839,3.839,0,0,1,1.485,1.715A2.725,2.725,0,0,0,154.92,220.255Zm4.926-84.045c6.855,4.166,17.3,13.881,9.925,24.211-8.679,9.107-21.175-1.335-27.334-6.058-5.71-3.66-12.126,5.754-6.828,10.027,44.5,32.944,62.557-27.091,27.7-33.079C159.475,130.651,158.05,134.92,159.846,136.209ZM103.5,96.2l1.211-.1c5.253-.463,10.572-1.168,15.752.02,6.959,1.6,6.449,11.722,0,13.583-5.684,1.64-11.982.93-17.85.987-.923.009-1.844.033-2.767.048a13.84,13.84,0,0,1-2,5.975,29.918,29.918,0,0,1-2.788,3.849c-2.356,2.863-7.914,2.8-10.292,0a11.463,11.463,0,0,1-3.182-7.258,9.776,9.776,0,0,1,.253-2.23l-3.2.056c-7.838.12-15.736.066-23.432-1.179-2.738.566-4.978-4.373-1.2-5.852,10.272-4.017,21.748-5.2,32.648-6.406C92.253,97.074,97.885,96.646,103.5,96.2Zm87.512-4.151.279-.028c6.8-.7,14.291-1.9,21.1-1.208,10.171,1.034,10.152,14.782,0,15.81a60.757,60.757,0,0,1-11.569-.167,6.9,6.9,0,0,1-5.2,9.965c-4.481.6-9.126-3.753-7.655-8.424l.069-.206c.286-.811.545-1.716.85-2.61l-1.621-.137c-4.848-.428-11.577-1.3-13.36-5.131a2.793,2.793,0,0,1,.415-3.21c3.4-4.045,11.775-4.178,16.688-4.653ZM118.73,60.575c4.92-1.787,10.033,2.4,10.671,7.109.734,5.432-3.183,9.008-8.149,9.657l-.249.03c-10.961,1.207-21.84,3.415-32.816,4.663-4.985.566-10.007.939-15.025,1.073l-3.586.081c-4.395.111-9.108.211-13.165-1.3l.015-.027h0a1.511,1.511,0,0,1-.374-2.716c4.32-3.054,10.142-4.209,15.171-5.66,5.056-1.46,10.149-2.807,15.255-4.071C97.2,66.758,108.341,64.349,118.73,60.575Zm45.372,1.27c1.3-6.872,11.038-7.609,14.614-2.609,2.311.793,5.7,1.621,7.8,2.244,3.658,1.085,7.319,2.163,10.988,3.208,7.6,2.164,15.011,4.907,22.481,7.464a.685.685,0,0,1-.182,1.338,181.361,181.361,0,0,1-31.164,1.553l-2.15-.1C177.245,74.586,161.556,75.273,164.1,61.845Z" transform="translate(515.781 147.487)"/><path class="b" d="M334.31,68.577a72.294,72.294,0,0,1-11.252,20.137c-19.327,16.367-38.108,7.3-47.645-14.878-3.623-15.677,6-32.563,16.192-44.1,14.723-14.756,38.75-7.012,45.519,10.53a53.936,53.936,0,0,1,.779,6.8,59.864,59.864,0,0,1-3.593,20.6M148.525,54.488c25.462-30.287,73.1-31.906,71.881,14.708C214.937,128.2,122.833,113.717,148.525,54.488ZM342.318,29.223a42.289,42.289,0,0,0-2.964-4.372c-.4-.238-.629-2.347-2.1-2.5-19.63-21.656-54.116-9.369-66.577,12.21a35.291,35.291,0,0,0-5.5,9.3c-12.277-2.252-26.59-1.814-38.009,2.823-11.322-29.565-45.6-32.2-68.19-19.572-14.05,6.91-23.161,21.381-36.826,29.331-32.122,2.312-66.6-4.885-98.138,3.172-24.876,5.172-4.081,17.768.091,9.362,29.738-8.786,64.97-1.362,95.846-3.341,3.21,5.431,9.368,9.875,15.5,9.685,6.628,58.746,92.3,49,95.254-3.217,3.352-5.3,7.521-10.372,13.488-13.674a28.971,28.971,0,0,0,6.507-2.039,16.556,16.556,0,0,1,11.932,3.845c10.863,65.186,73.453,57.594,84.639.488a7.435,7.435,0,0,0,1.322-2.444c3.828-5.062,13.2-6.944,11.7-15.49C358.967,34.236,348.173,34.338,342.318,29.223Z" transform="translate(421.444 192.487)"/></g></svg>