<svg xmlns="http://www.w3.org/2000/svg" xmlns:xlink="http://www.w3.org/1999/xlink" width="931" height="931" viewBox="0 0 931 931"><defs><style>.a{fill:#b11b1b;}.b{clip-path:url(#a);}.c{fill:#fff;}.c,.d{fill-rule:evenodd;}</style><clipPath id="a"><circle class="a" cx="465.5" cy="465.5" r="465.5" transform="translate(2850 1420.5)"/></clipPath></defs><g transform="translate(-2484 -1259.5)"><circle class="a" cx="461" cy="461" r="461" transform="translate(2484 1268)"/><g class="b" transform="translate(-366 -161)"><g transform="translate(2606 1412.014)"><path class="c" d="M868.142,1261.933c-2.586,22.685-10.92,69.62-15.012,92.666-1.189,6.7-2.022,11.4-2.262,12.94-23.155,121.043-32.632,244.043-37.027,367.027a187.648,187.648,0,0,0,2.132,47.77q.214,1.216.445,2.432c.778-.156,1.567-.3,2.368-.434,32.564-5.291,54.5,18.492,75.694,40.915,8.288,8.763,16.461,17.4,25.036,24.291a493.5,493.5,0,0,0,66.221,49.384c9.541,5.618,20.368,12.26,27.681,21.072,4.971,5.995,8.3,13.021,8.206,21.457l-.025,2.9,2.858-.442a3.625,3.625,0,0,1,2.146.188,3.194,3.194,0,0,1,1.376,1.45c1.523,2.792,1.523,7.223,1.605,10.589.025.852.041,1.654.082,2.367.254,10.081-4.308,16.732-11.171,21.285-10.679,7.084-26.616,9.312-39.539,11.2-2.391.344-4.676.68-6.839,1.024-79.472,8.517-159.931-12.989-233.464-42.135l-.621-.246c-.2.041-.4.065-.606.1-5.859.77-10.9-2.35-14.886-6.871a44.31,44.31,0,0,1-9.953-22.268c-.749-3.391-.277-6.544.14-9.672.554-4.152,1.022-8.263-.273-12.293-10.143-23.062-11.476-48.147-10.024-72.716-.4-30.424,6.589-39.007,12.275-45.8,4.773-5.716,8.629-10.352,7.389-23.316-.156-1.916-.761-14.234-.5-20.351l1.9-.279c-3.017-43.5-13.96-86.589-24.908-129.634-17.831-70.12-35.74-140.157-18.56-211.833,5.422-22.087,16.148-41.652,26.91-61.332,6.829-12.489,13.677-25.028,19.262-38.254.1-.238.2-.475.3-.713q-.081-.356-.15-.713c-1.057-5.479.251-11.064,1.493-16.682,1.136-5.135,2.248-10.311,1.983-15.47-.1-9.713-2.008-19.008-4.018-28.418q-.153-.725-.31-1.45c-.47-.131-.94-.262-1.409-.4a161.6,161.6,0,0,1-26.817-10.2l-2.312-1.138-1.029,2.359a3.938,3.938,0,0,1-1.382,1.72,3.987,3.987,0,0,1-2.122.68,4.474,4.474,0,0,1-2.338-.549,3.677,3.677,0,0,1-1.4-1.318c-.984-4.029.114-8.288,1.1-12.5a56.387,56.387,0,0,0,1.5-8.255c.32-1.54.593-3.349.883-5.274.808-5.372,1.653-11.859,4.558-15.716a6.376,6.376,0,0,1,3.133-2.375,8.324,8.324,0,0,1,4.479-.016,10.6,10.6,0,0,1,2.661.975c.114-1.032.226-2.072.336-3.1a807.673,807.673,0,0,0,2.949-132.124q-.3-5.123-.663-10.237-2.071,4.7-4.055,9.426c-7.911,18.853-14.854,38.41-21.793,57.966-9.711,27.361-19.412,54.715-31.792,80.07q-.3.614-.6,1.228a3.762,3.762,0,0,1,.6.909,3.041,3.041,0,0,1,.326,1.884,3.433,3.433,0,0,1-1.051,1.769c-4.6,4.455-6.99,10.417-9.306,16.4-.117.295-.234.6-.351.9a34.688,34.688,0,0,1-8.474,14.3,24.359,24.359,0,0,1-12.652,6.8q-.779.147-1.555.246c-.129.541-.255,1.081-.38,1.614-.617,2.621-1.259,5.389-1.929,8.271-7.846,33.8-19.578,84.5-40.727,121.813-13.535,23.873-30.913,42.34-53.888,46.673q-2.508.479-5.015.713a8.039,8.039,0,0,1,3.374,2.989c2.644,4.332,0,10.229-1.991,15.642a51.84,51.84,0,0,0-2.743,9.042c-2.146,6.142-3.942,12.44-5.739,18.746-3.294,11.564-6.578,23.16-12.158,33.75-.21.4-.422.794-.636,1.188a3.23,3.23,0,0,1,.53.876,3.565,3.565,0,0,1,.2,1.753,3.665,3.665,0,0,1-.428,1.523,10.671,10.671,0,0,1,6.353,7.3,19.3,19.3,0,0,1-.246,10.36,21.768,21.768,0,0,1-5.464,9.566,12.036,12.036,0,0,1-7.665,3.693c-.2.008-.394.016-.59.016q-.237.159-.476.295a10.543,10.543,0,0,1-4.788,1.155l-.581,4.832c.368.409.422.622.4.844-2.486,29.9-9.593,59.047-16.662,88.088q-1.968,8.083-3.9,16.166c-2.493,8.583-4.336,17.419-6.177,26.272-3.023,14.52-6.031,29.073-12.064,42.463-.149.328-.3.663-.453.991.148.319.29.639.425.966,3.012,7.215,2.4,15.568.9,23.087-2.435,2.784-7.008,2.547-10.808,2.661-1.459.041-2.861.09-4.122.221-.805.082-1.66.213-2.547.36.13.811.252,1.622.368,2.424,1.844,12.964,1.774,26.158,1.712,39.31-.034,7.428-.068,14.848.232,22.194q.053,1.3.12,2.6c.793-.115,1.615-.2,2.468-.245a20.523,20.523,0,0,1,18.3,8.321c6.5,8.28,9.43,20.884,12.008,31.628.7,2.924,1.373,5.716,2.07,8.271,5.3,17.747,12.078,34.847,18.857,51.939,9.038,22.776,18.08,45.543,23.48,69.719l.824,3.685,3.036-2.252a1.7,1.7,0,0,1,.948-.352,2.027,2.027,0,0,1,1.1.319c10.85,6.519,10.969,19.958,11.425,31.276.04,1,.08,1.982.125,2.957a67.905,67.905,0,0,0,.252,7.575c.441,6.265,1.359,13.12-3.943,17.125-37.462,25.536-88.118,24.8-131.418,18.1A217.5,217.5,0,0,1,338.76,2029c-6.048-2.047-10.572-4.218-13.338-7.78-2.35-3.03-3.322-7.051-2.941-12.628-1.065-10.155-.152-19.819.748-29.491.779-8.386,1.55-16.781,1.135-25.232,1.27-32.456,8.7-64.543,16-96.147.292-1.261.585-2.531.876-3.792q.64-2.015,1.295-4.095c5.623-17.87,12.258-39.761,28.408-49.769a19.433,19.433,0,0,1,1.97-.188,20.12,20.12,0,0,0,6.146-1.187c.04-.025.08-.041.12-.066l-.92,3.112,4.807-2.064a16.42,16.42,0,0,1,3.462-1.048c.392-.074.788-.139,1.185-.18.194-.393.386-.778.574-1.171,6.539-13.521,9.576-28.254,12.587-42.987,1.861-9.1,3.717-18.206,6.447-27q.351-1.13.723-2.26c-.74-.229-1.47-.483-2.187-.762-7.6-2.924-14.493-8.771-16.63-16.682a15.324,15.324,0,0,1,3.191-6.511,6.689,6.689,0,0,1,4.578-2.5l3.375-.213-1.245-3.145a21.057,21.057,0,0,1-1.034-10.008c6.362-39.212,14.836-78.088,23.965-116.76,3.475-14.381,7.192-28.713,11.389-42.9.616-1.712,1.1-3.636,1.6-5.618,1.025-4.1,1.962-8.591,4.951-11.179a9.533,9.533,0,0,1,2.373-1.482c-.769-.688-1.52-1.4-2.255-2.121-6.38-6.29-11.791-13.93-11.945-22.513A11.945,11.945,0,0,1,432.21,1473a9.013,9.013,0,0,1,2.892-1.736l4.043,2.49c.969.59,1.894,1.27,2.821,1.949.781.565,1.562,1.138,2.362,1.662l9.665,6.4L447.752,1474c-4.908-7.682-2.474-17.035-.5-25.625.533-2.318,1.056-4.594,1.453-6.789q.781-3.513,1.545-7.051c3.1-14.242,6.229-28.672,11.678-42.087.222-.549.447-1.089.674-1.638-.448-.377-.894-.753-1.34-1.138-21.218-18.427-29.52-41.153-30.593-65.542-1.547-35.134,11.764-73.65,23.553-107.948,3-8.714,5.9-17.165,8.451-25.216.175-.557.35-1.106.523-1.662-.478-.377-.955-.737-1.431-1.073a102.3,102.3,0,0,0-9.926-5.986c-8.87-4.914-18.944-10.016-20.282-20,.148-5.364,2.249-10.54,4.259-15.634.817-2.064,1.626-4.119,2.319-6.159.536-2.408,2.174-5.528,4.26-6.937a2.168,2.168,0,0,1,1.436-.5,2.247,2.247,0,0,1,1.3.8l2.885,3.055,1.246-4.013q.956-3.071,1.917-6.159c12.214-39.187,24.607-79.1,23.49-120.494-.016-.606-.035-1.212-.058-1.81q-.9-.295-1.839-.516c-4.252-.991-8.572-.6-12.836-.172-5.358.54-10.685,1.278-15.492-2.318-43.8-33.5-39.03-118.9-35.28-168.748.048-.647.1-1.3.147-1.957-.608-.172-1.214-.36-1.818-.557a29.36,29.36,0,0,1-5.748-2.572l-1.452-.86-1.326,1.048a1.818,1.818,0,0,1-1.436-.8c-1.711-1.81-3.4-5.119-5.087-9.164-5.96-14.344-11.293-37.816-12.868-44.729-.039-.174-.077-.337-.117-.516-31.871-144.446-19.678-293.389-7.733-439.742q1.281-15.687,2.542-31.33c2.572-19.278,3.557-39.012,4.541-58.789,2.014-40.466,3.985-81.123,19.95-118.306C409.424,97.2,439.479,90.895,465,85.182l2.092-.468c13.294-3.96,26.66-7.017,40.009-10.071,20.457-4.681,40.871-9.362,60.357-17.042q1.582-.624,3.153-1.272a21.222,21.222,0,0,1-2.058-2.446c-3.422-4.765-4.762-11-4.41-17.187a31.593,31.593,0,0,1,6.309-17.56,6.323,6.323,0,0,1,4.957-.91c3.44.562,7.028,2.6,9.948,4.21l.847.466,2.192,1.2,1.162-2.211c4.591-8.729,7.777-18.349,10.891-27.792,1.8-5.453,3.576-10.843,5.607-15.953,6.221-13.15,16.892-19.455,29.2-21.882,18.556-3.658,40.749,1.282,57.915,5.566l1.858.473c8.659,2.2,17.945,4.484,25.145,9.89,11.986,9.574,14.532,24.459,17.24,39.062,1.371,7.392,2.747,14.748,5.163,21.46q.407,1.13.858,2.253a10.652,10.652,0,0,1,2-.69c9.493-2.171,30.328,10.169,37.509,16.742a7.112,7.112,0,0,1,3.182,3.878c.744,2.323.505,4.985.333,7.612-.078,1.191-.155,2.378-.169,3.538-.009.678,0,1.366.025,2.059l1.963.383c4.228.821,8.543,1.624,12.911,2.437,31.266,5.821,65.358,12.077,89.68,29.289,17.01,12.035,29.13,29.5,31.964,56.053,8.984,38.373,13.758,77.142,18.173,115.93q.9,7.685,1.769,15.383c7.117,62.219,14.291,124.8,33.619,184.609,1.9,4.649,3.743,9.124,5.585,13.6,28.909,70.285,58.253,141.52,65.19,217.946,3.767,36.523,3.194,73.421-3.055,109.624a5.7,5.7,0,0,1-3.677,4.037,6.676,6.676,0,0,1-5.995-.237l-9.246-5.831,5.864,9.23c12.35,19.434,2.006,53.6-4.988,77.736-1.04,3.571-2.015,6.937-2.858,10.016-5.372,17.821-14.062,37.222-27.722,47.516a33.908,33.908,0,0,1-17.755,7.027c-6.159.516-12.981-.631-20.548-3.865-.95-.4-1.867-.819-2.752-1.245-.2,1-.41,2.006-.622,3.014-14.848,72.183-31.424,143.736-51.1,214.79l-2.743,9.9,6.928-7.592a6.793,6.793,0,0,1,3.694-2.178,7.275,7.275,0,0,1,4.406.6,10.513,10.513,0,0,1,5.987,8.271c-.573,9.713-3.7,19.041-6.8,28.353-1.654,4.971-3.3,9.934-4.586,14.938a15.82,15.82,0,0,1-8.37,10.335c-5.954,3.063-13.734,3.563-21.08,4.1-3.828.278-7.553.557-10.9,1.13-.5.082-1.007.18-1.518.278-.145.491-.288.974-.428,1.458-.988,3.423-1.854,6.888-2.721,10.344-.693,2.768-1.386,5.528-2.143,8.28l4.72,1.368c.346-1.147.67-2.211.974-3.2ZM501.629,832.01c.164-20.736,7.553-40.284,14.875-59.8,3.051-8.133,6.1-16.26,8.646-24.461q.227-.73.45-1.463-.576-.579-1.164-1.1a55.309,55.309,0,0,0-6.528-4.7c-3.285-2.133-6.711-4.277-8.748-7.173a8.735,8.735,0,0,1-1.469-6.734q1.774-32.049,4.385-64.05.613-6.829,1.235-13.661c7.281-80.311,14.616-161.543.195-241.457-.635-3.639-1.376-7.24-2.117-10.843-.5-2.421-1-4.843-1.461-7.272-.067-.357-.142-.831-.229-1.382a40.5,40.5,0,0,0-2.512-9.845c-1.267-2.752-3.122-4.512-5.344-4.9a5.641,5.641,0,0,0-2.382.107c-.143.568-.286,1.151-.428,1.734-24.151,99.464-18.091,200.933-12.005,302.206,2.8,46.593,5.6,93.143,5.425,139.434,0,.459,0,.909-.006,1.368a2.192,2.192,0,0,1,.812.459,2.267,2.267,0,0,1,.675,2.1,3.015,3.015,0,0,1-2.527,2.522q-.145.651-.3,1.3-.7,2.96-1.568,5.9c-.143.475-.289.95-.438,1.433.366.344.733.7,1.1,1.048q3.7,3.513,7.458,6.969l4.476,4.111-.361-6.069C501.661,835.859,501.615,833.926,501.629,832.01Z" transform="translate(-0.362 0)"/><path class="d" d="M1028.33,849.194c-9.172,30.834-17.583,76.491-40.94,99.2-8.214,6.634-17.87,2.58-27.3,1.777,6.077-35.674,10.278-71.643,13.66-107.661a188.414,188.414,0,0,0,54.9-19.77c4.455,7.469,1.671,18.828-.311,26.453m-76.581,91.544c-8.853,50.956-20.916,101.273-32.6,151.525-6.183,30.629-19.36,62.217-22.2,92.445-59.606,23.783-124.1,14.536-185.748,4.832a28.159,28.159,0,0,1,4.791-7.682c3.47-45.412,9.816-94.8-.909-138.724a171.383,171.383,0,0,0,19.328-21.3c5.372-7.092-5.807-16.469-12.088-11.31,8.695-21.727,17.667-43.331,27.075-64.755,2.514-5.741-5.954-10.745-8.493-4.963-35.034,80.177-64.59,162.237-95.147,244.248-1.7-3.382-8.539-2.981-6.06,1.826-62.6,5.233-127.947-10.745-185.545-36.723,13.764-44.208,29.444-89.242,28.525-136.013,13.482.622,31.7-7.051,38.835-18.656,7.133,5.544,15.88-1.261,19.639-7.723,8.686-16.953,3.879-37.64-1.146-55.01,17.733,2.784,39.936-13.66,27.8-32.03-18.747-16.453-40.142-30.457-58.522-47.787-1.572-32.5,11.02-62.828,22.456-93.315,57.785,40.725,114.44,84.544,175.118,120.5,10.434,1.065,18.86-6.83,26.692-12.6,22.35-16.584,44.9-32.947,66.926-49.981a8.138,8.138,0,0,0,7.248-.7c14.063,15.061,28.927,28.967,42.84,44.109,8.358,7.723,14.394,19.778,26.059,22.743,5.453,1,8.925-1.261,12.422-5.045,21.219-22.456,44.052-43.315,66.041-65,2.834,3.68,8.28,2.435,11-1.089-2.2,42.916-7.838,85.707-14.332,128.179m-39.3,249.113c-.672.573.123.082.762,1.04.647,6.159-2.973,12.416-4.185,18.468-4.021,8.886-3.628,29.458-15.5,29.777-65.566,11.408-131.817,1.687-195.977-12.98.835-13.022,4.867-26.436,2.236-39.319a7.485,7.485,0,0,1,3.481-1.9c-.357,1.818-.111,4.054,1.286,4.963,54.9,24.11,134.425,29.09,191.4,6.683,5.995,1.892,10.475-5.831,5.774-10.082a4.621,4.621,0,0,0,2.2-.876c-.934,4.07,5.029,7.215,8.526,4.226M729.9,1241.8c1.671.442,3.35.852,5.028,1.253-1.288,3.071.571,7.518.066,10.982A49.867,49.867,0,0,0,729.9,1241.8m-97.965-35.306c-2.611,7.485-6.756,15.814-15.511,17.01a5.668,5.668,0,0,0-5.946.729c-57.067-.778-126.893-17.976-170.346-55.55-.522-5.143,1.923-10.319,2.434-15.429.717-2.031,1.54-14.8,4.259-12.424-2.073,5.078-3.863,12.522,4.046,11.777,55.951,32.275,122.068,44.568,186.175,42.553a88.343,88.343,0,0,0-5.11,11.334M513.384,1419.857q-7.363,26.387-15.773,52.479c-5.4,25.773-18.4,29.229-37.714,12.342-13.978-8.46-8.083-23.66-5.969-36.755,2.612-16.1,6-32.087,8.443-48.212,15.4,11.408,34.781,17.01,53.831,14.512-1.523,1.474-2.187,3.374-2.817,5.635m-25.732,82.535c-.172-.049-.352-.106-.524-.164.2-.066.385-.139.573-.2l-.049.369m-10.065,33.176c-6.091,54.183-23.686,106.244-35.738,159.28-1.361,10.982-9.757,15-19.879,11.515-4.16-1.073-10.523-2.613-13.569-5.88-3.472-3.734-1.114-11.015-.344-15.372,4.783-26.944,10.155-53.773,15.659-80.586,6.553-29.131,11.88-58.843,19.041-87.637,10.378,8.8,23.6,14.987,37.459,15.249a3.92,3.92,0,0,0-2.629,3.432m-38.131,193.661c-.819.18-1.638.327-2.465.459,1.245-3.947,2.436-9.443.221-13.12.508-.18,1-.377,1.474-.6a49.247,49.247,0,0,1,.77,13.259M432.4,1840.952c13.2,8.566,20.9,22.98,27.656,36.747,4.341,8.828,7.878,19.483,14.52,27.01,2.752,7.411,5.52,14.815,8.157,22.268,7.892,24.52,17.739,50.538,16.789,76.4a.847.847,0,0,1,.025-.1c-.089.647-.309,1.27-.459,1.908.6-.418,1.289-.819.352-.131-.086-.074-.349.164-.36.147,0,.016-.008.033-.008.049a1.873,1.873,0,0,1,.188-.139,2.3,2.3,0,0,0-.2.18.253.253,0,0,1-.016.065c-.049.041-.412.311-.336.213a7.534,7.534,0,0,0-2.219,1.589c-50.569,10.958-106.4,12.915-153.155-12.2-17.966-36.567.464-97.67,7.837-137.046,23.54-13.423,54.363-30.449,81.233-16.961m20.359-14.52c1.908,8.419,3.194,16.92,4.955,25.339-5.171-5.593-7.834-12.6-12.348-18.508-2.78-5.831-5.763-14.217-12.679-15.3q-.284-7.1-.385-14.2c11.76,1.458,17.96,11.588,20.458,22.669m64.068,184.636a7.551,7.551,0,0,0-3.333-5.864c.454-8.149-.938-16.068-2.211-24.094,8.561,9.14,4.915,23.791,6.315,35.256-.111,4.562,2.1,10.368-3.2,12.727-16.559,11.449-36.632,16.789-56.418,19.09-43.167,4.938-88.044-3-126.612-23.062-5.161-6.994-3.354-24-4.046-32.947,2.44,7.985,6.722,15.094,15.193,17.591,52.47,25.265,114.223,22.227,169.418,8.009a6.24,6.24,0,0,0,4.9-6.707M378.3,1834.277c.3-.368.59-.737.884-1.114,1.843-.09,3.685-.254,5.528-.458-2.757,1.1-5.47,2.293-8.116,3.636.573-.68,1.147-1.368,1.7-2.064m22.35-41.964c4.5-18.984,6.117-38.508,8.4-57.852a65.576,65.576,0,0,0,20.212,4.152c-8.524,25.822-8.085,54.1-7.854,81.077-10.461,1.769-21.726,2.768-31.981-.729a93.029,93.029,0,0,0,11.22-26.649m70.57-796.983a70.584,70.584,0,0,0-17.133.647c-33.64-22.866-38.943-116.62-44.224-156.2,24.073,6.15,49.569,4.488,72.937-3.6.441,4.308,5.365,6.535,8.362,3.628,15.846,28.205,39.558,50.792,64.018,70.988-.287-.942-.491.786-.131.131-3.115,7.141-14.556,3.432-19.966,8.411-3.472,2.588-4.2,7.117-1.99,10.139-5.853,16.174,3.452,35.92-5.307,51.267-1.968,2.285-4.529,3.923-6.224,6.494-11.657-7.993-22.28,8.9-34.085,9.647.082,0,.164,0,.254-.008a31.742,31.742,0,0,1-6.331-.123c-3.386-.532-6.764-1.081-10.18-1.417M492.9,430.152c2.473-16.125,5.356-32.153,9.1-48.025,4.512.786,5.52,11.122,6.093,14.168,19.319,87.415,10.954,177.375,2.677,265.607q-3.008,35.488-4.954,71.078c-1.671,10.907,10.873,14.608,17.567,20.58-9.312,29.983-25.38,58.991-23.48,90.925q-3.747-3.44-7.428-6.945c.622-2.006,1.155-4.013,1.605-6.036,3.058-1.6,4.028-5.987,1.409-8.3,1.007-130.75-23.528-262.613-2.588-393.048m244.15-254.51c4.644-8.261,16.94,2.468,9.213,8.468-5.376,4.354-12.827-2.8-9.213-8.468M755.7,262.649c3.764-6.919,15.989-3.485,13.7,4.716.033-.351.057-.63.082-.844.325,6.68-12.623,12.1-13.521,3.563a6.923,6.923,0,0,1-.262-7.436m17.264,93.984c9.32-3.669,12.755,10.105,4.856,13.776-8.493,3.016-13.171-10.736-4.856-13.776m10.876,100.905c2.3-7.793,14.063-5.734,13.98,2.277-.3,10.817-16.309,7.552-13.98-2.277m19.278,97.883c3.27-9.79,15.834-4.723,14.781,4.758,1.371,5.476-9.243,16.526-11.391,7.575a14.986,14.986,0,0,1-3.391-12.334m19.737,112.894.074-.1c6.99,3.289.94,18.267-5.8,12.768-6.538-3.992-2.013-16.646,5.725-12.669m9.2,91.65c8.154,8.017-4.455,20.7-12.5,12.5-8.163-8,4.44-20.69,12.5-12.5m198.171,61.916a6.908,6.908,0,0,0,.352.7l-.639-.541c.09-.049.188-.1.287-.156M724.562,1776.892a93.287,93.287,0,0,0,2.178,17.673c4.245,23.365,34.264,51.423,58.965,34.634,11.334-7.977,16.3-23.414,29.81-28.418,14.16-5.249,29.663-.082,41.579,8.034,13.791,9.394,24.534,22.776,36.278,34.462a498.614,498.614,0,0,0,82.331,66.041c15.519,9.631,48.016,24.086,35.15,46.648-9.844,14.283-34.609,7.469-38.876,15.536-54.944,2.26-108.714-12.768-160.949-28.156-26.517-8.673-54.264-13.726-79.972-24.733-24.637-21.58-24.72-69.063-21.327-99.5,1.106-6.658,3.854-38.3,14.218-32.669,3.078.344-1.392-3.063-2.49-2.645a18.227,18.227,0,0,0,3.1-6.912m299,177.568a2.6,2.6,0,0,0,1.1.262c1.081,2.768.549,14.045.344,15.986-3.325,16.969-30.048,19.786-44.216,22.349-49.768,7.846-100.389,2.359-148.943-10.147-23.7-5.872-47.271-12.661-70.275-20.843-20.45-6.224-45.7-16.551-43.192-42.48,11.424,15.38,47.808,19.917,66.114,26.28,57.452,17.452,115.743,36.223,176.371,36.829,9.189-.4,21.883,2.17,28.77-4.75,14.61-2.088,29.769-10.179,33.93-23.488m13.218-1318.9c-13.308-52.443-34.716-102.357-55.567-152.115-22.53-66.067-29.131-136.042-37.181-204.987-4.422-38.9-9.213-77.743-18.173-115.908C918.253,91.4,846,83.644,789.334,72.617c.08-6.075,1.948-12.985-4.145-16.871-5.593-5.681-35.451-23.337-41.349-15.863-2.316-5.633-3.449-11.883-4.545-17.9-.737-2.373-1.041-10.556-3.619-10.491-.551,16.017-7.348,39.467,6.289,51.5-8.185,12.475-15.009,27.591-25.8,37.525l.025-.025c-.54.351-1.089.671-1.654.974a6.168,6.168,0,0,0-1.286.386,10.818,10.818,0,0,1-5.389-.934h.016C670.73,79.807,634.386,57.195,598.425,34.034c5.141-7.6,11.792-44.873,5.414-50.039-4.46,14.7-9.1,29.455-15.872,43.29-5.864-3.2-15.352-8.956-20.294-1.433-6.232,10.452-8.012,25.609-.532,36-32.147,12.668-66.813,17.1-100,27-14.463,3.708-29.778,6.468-43.348,12.9-40.438,22.436-40.471,77.715-44.906,118.429-11.38,198.179-47.478,403.049,9.05,597.463,2.172,5.97,5.382,11.7,7.88,17.575.991,2.326,3.563,2.252,5.258.991A32.153,32.153,0,0,0,407.295,839c-3.7,50.546-8.717,142.876,40.069,173.023,8.529,3.063,16.578-1.3,25.431.794,1.179,43.282-12.563,84.853-25.3,125.858-9.367-7.264-12.958,14.586-15.79,20.2-9.513,20.155,15.885,29.172,29.2,37.885-19.857,62.528-60.973,149.125-.68,201.3-6.4,15.749-9.68,32.972-13.357,49.58-1.975,10.835-7.158,24.151-.614,34.216-1.771-1.171-3.443-2.555-5.25-3.661,7.864-.123-3.766-5.864-8.459-1.572-13.1,9.754-3.4,27.64,6.412,36.813-3.816,2.85-5.135,10.728-6.265,14.471-4.635,15.364-8.7,30.916-12.456,46.517-9.149,38.745-17.639,77.7-24.013,117.005a23.542,23.542,0,0,0,1.188,11.228c-4.933.213-7.9,4.922-9.466,9.041-2.226,9.213,9.577,18.279,17.6,21.4-8.454,28.058-9.213,59.277-27.124,83.641-1.925-1.867-5.217-2.2-6.863.9-1.8,5.143-12.847,19.131-8.706,23.324a4.2,4.2,0,0,0,1.425,2.629c-3.956,2.67-7.731,5.5-11.49,8.485,5.027-14.4,9.2-31.194,20.007-42.283,2.851-1.621,6.5-1.073,8.772-3.784a4.59,4.59,0,0,0,.082-6.29c-.786-.926-2.6.057-2.113,1.229,1.376,3.308-7.092,2.727-9.041,3.4-19.013,11.809-25.837,38.663-32,59.015-7.4,35.764-17.759,72.208-15.47,109-2.46,12.858-6,48.213,1.458,57.942,39.371,23.455,88.216,30.343,133.485,25.83,20.179-2.924,73.16-9.32,69.375-37.328-1.269-15.814,2.386-36.935-13.1-46.8a4.141,4.141,0,0,0-4.751.18c-9.464-42.365-30.027-80.439-42.365-121.764-5.174-18.967-8.919-51.447-34.88-50.031-.835-20.433.933-41.382-1.892-61.619,0,.008,0,.008-.008.008a.733.733,0,0,0-.066-.139c5.333-.647,14.3.778,17.125-4.8,1.446-7.846,2.156-17.059-1.082-24.561,9.729-21.5,11.77-46.435,18.379-69.129,8.213-34.536,17.68-69.1,20.628-104.582a3.167,3.167,0,0,0-2.211-3.505,13.206,13.206,0,0,0,5.954-1.474c14.537-.844,22.834-26.665,9.754-34.658a5.938,5.938,0,0,0-.369-2.9c8.846-16.9,11.9-35.371,18.117-53.044,1.174-7.87,8.91-19.5,4.437-26.567,67.137-17.444,83.155-120.4,98.48-178.616,22.134-4.324,20.038-25.4,32.053-39.073a5.288,5.288,0,0,0,1.214-6.453c21.246-43.52,34.642-92.887,53.642-138.159a804.341,804.341,0,0,1-2.94,131.722c-14.031-3.26-14.086,16.125-16.044,25.429q-1.523,8.673-3.047,17.337a6.568,6.568,0,0,0,12.383,4.21,164.021,164.021,0,0,0,27.222,10.352c1.974,9.271,3.89,18.41,3.964,27.984.585,10.958-5.478,21.932-3.431,32.546-13.516,32.234-34.715,59.9-44.486,93.493-32.294,117.554,33.6,232.037,41.6,348.69-3.369-14.709-1.405,21.211-1.269,24.184.362,23.947-20.6,12.85-19.8,65.247-1.481,24.938-.061,50.481,10.137,73.617,2.26,7.117-1.617,14.2.033,21.506,1.619,13.226,12.447,33.274,27.6,31.276,86.447,32.726,186.6,62.413,277.521,31.931,6.322-3.145,12.915-7.215,15.184-14.283,1.941-6.306,4.553-30.187-6.372-28.336.237-21.727-20.4-34.847-37.042-44.633a492.6,492.6,0,0,1-65.976-49.22c-31.088-24.962-56.716-73.175-102.672-65.714-5.985-32.808.284-66.262.237-99.365,2.994-146.013,31.716-289.168,53.451-433.011a1,1,0,0,0-1.929-.524c-46.8,134.99-58.681,279.824-67.478,421.619-2.907,38.115.375,76.057,8.185,113.443-20.56,5.651-23.742,37.672-47.753,34.593-12.755-2.678-24.18-12.751-29.3-24.6,5.456-8.877,1.6-21.277,1.378-31.358q-1.268-14.667-2.991-29.3c-7.96-112.043-69.348-220.433-45.136-333.72,11.574-55.722,66.5-102.469,49.2-162.728a425.051,425.051,0,0,0,150.893,6.92c18.214-.565,24.029-8.255,27.845-25.232,2.752-11.3,8.37-22.407,8.46-34.143-.811-9.123-11.793-15.495-18.361-8.3,19.688-71.1,36.288-142.737,51.144-214.954,48,20.589,66.909-38.663,75.738-74.346,4.259-21.375,13.423-47.68,1.171-67.663,35.822,14.275,12.006-170.837,3.063-190.232" transform="translate(0 -5.252)"/></g></g></g></svg>