<svg xmlns="http://www.w3.org/2000/svg" width="663" height="1012.67" viewBox="0 0 663 1012.67"><defs><style>.a{fill:#fff;}.a,.b{fill-rule:evenodd;}</style></defs><g transform="translate(-297 -67.33)"><g transform="translate(297 265.567)"><path class="a" d="M470.353,383.472a54.621,54.621,0,0,1-6.729,32.785l-1.8,3.118,3.431,1.2a63.544,63.544,0,0,0,21.229,3.246,182.564,182.564,0,0,0,23.795-2.078l4.427-.593-2.175-3.845c-1.749-3.091-2.072-6.835-2.415-10.8-.092-1.065-.187-2.166-.312-3.256-6.552-58.561-14.833-117.886-22.842-175.256-2.108-15.1-4.287-30.708-6.4-46.064l-6.064.234c-1.631,28.423-3.215,57.327-4.745,85.279q-1.01,18.438-2.026,36.874c-2.42,31.072-1.584,56.232,2.631,79.159m2.475,351.165a129.044,129.044,0,0,1-26.521-2.759c-27.2-5.706-51.909-19.175-72.935-31.353-1.074-.61-2.163-1.219-3.281-1.844-8.232-4.608-18.476-10.334-24.9-17.325-7.043-7.672-8.255-15.313-3.814-24.052l.7-1.382-.734-1.367c-4.6-8.556-4.257-19.149.831-25.749l4.276-5.548-7.03.747c-7.089.752-14.233,1.768-21.143,2.754-7.666,1.1-15.595,2.225-23.4,2.982l-2.17.213-.5,2.088c-.278,1.164-.621,1.87-3.03,1.87a42.191,42.191,0,0,1-7.866-1.255,56.905,56.905,0,0,0-11.9-1.717,21.318,21.318,0,0,0-4.875.518l-.877.2-.624.64a2.551,2.551,0,0,1-1.774.66,2.213,2.213,0,0,1-1.338-.4l-.985-.767-1.249.137c-21.767,2.388-40.537,6.585-57.379,12.819l-.076.031-.365.157c-6.09,2.627-12.387,5.345-18.121,5.345a14.5,14.5,0,0,1-10.714-4.486l-.881-.864-1.243-.015c-12.609-.117-18.371-14.82-19.167-24.672l-.1-1.24-.961-.808c-21.975-18.443-34.948-43.77-39.662-77.43-4.293-30.662-1-62.991,2.794-90.57,8.769-71.473,17.915-135.547,41.163-196.315l1.086-2.841L151.175,250c-10.041-3.608-17.715-7.913-23.461-13.161l-.4-.364-.5-.206c-8.235-3.383-12.268-15.872-13.308-19.619l-.083-.3-.145-.278c-1.68-3.223-2.068-7.706-1.063-12.3l.108-.495-.062-.5c-.543-4.362,1.258-8.923,3.165-13.752.871-2.206,1.772-4.486,2.43-6.757,2.262-6.49,4.521-13.1,6.707-19.484,4.9-14.333,9.974-29.154,15.375-43.571l.739-1.971-1.627-1.359c-2.778-2.32-1.85-5.052,2.156-11.584a48.455,48.455,0,0,0,2.523-4.44,301.425,301.425,0,0,1,16.36-25.32l.118-.163.094-.176c29.361-54.835,81.442-85.034,146.648-85.034l1.329,0,.735-.442c12.221-7.349,20.945-19.959,26.671-38.549l.183-.593-.071-.616a42.664,42.664,0,0,1-.337-6.14c.186-5.521,2.35-10.447,5.936-13.516C348.2-76.515,358.526-77,368.522-77h1.435c12.781.039,21.8,2.258,28.4,6.987,7.66,5.494,11.893,14.363,12.942,27.113.314,3.815.3,7.768.293,11.59l0,1.067.129.423a75.336,75.336,0,0,0,3.2,8.655l1.238,2.791,2.815-1.258a18.016,18.016,0,0,1,7.057-1.279c.844-.02,1.668-.029,2.5-.029,6.8,0,14.073.621,21.108,1.221,5.3.452,10.781.921,16.087,1.128l.073,0s.733,0,1.061,0c12.894,0,22.242,2.028,29.416,6.382C503.99-7.526,509.545,0,513.745,11.464c22.529,65.724,31.791,136.517,39.961,198.974,4.634,32.662,6.044,66.146,7.408,98.527,1.438,34.179,2.927,69.521,8.2,104.069l.417,2.731,2.794-.18c12.311-.795,25.617-2.506,39.7-4.318,21.4-2.752,43.526-5.6,64.921-5.6,29.91,0,52.585,5.886,69.321,17.99,11.66,10.992,17.7,25.874,17.447,43.048-.351,24.265-13.184,51.1-32.7,68.35l-.071.066c-24.667,23.3-69.692,43.511-133.821,60.069-58.971,15.227-119.97,23.5-151.082,27.075l-7.7.889,6.25,4.517c2.53,1.829,4.838,3.44,7.057,4.923l1.431.96,1.568-.721c4.471-2.048,7.311-2.479,8.906-2.479,1.416,0,3.124.3,3.218,1.773a2.472,2.472,0,0,1-2.063,2.561l-7.654.955L463.5,640.1c4.174,2.977,10.4,6.564,17.614,10.72,23.594,13.591,59.251,34.137,53.118,52.179l-.4,1.184.57,1.118a9.936,9.936,0,0,1,.429,9.166c-2.911,6.3-12.018,11.076-19.753,13.022l-.133.031-.13.046a127.277,127.277,0,0,1-41.986,7.067" transform="translate(-103.443 77.003)"/><path class="b" d="M443.493,630.052a2.771,2.771,0,0,0,.452-3.643c-3.358-4.288-10.324-1.356-14.658-.366-1.636-1.362-3.262-2.728-4.827-4.171.544-3.368-3.511-5.614-5.177-8.216a43.768,43.768,0,0,0-5.137-5.7c-4.78-3.729-11.406-1.2-16.954-1.377-4.273-5.436-8.673-10.7-12.737-16.314,4.684-7.87,5.015-17.1,3.46-25.871,71.856-27.263,134.055-78.888,211.767-90.818,2.672-.445,4.171-3.694,3.506-6.076-5.421-12.937-83.322,20.445-94.967,26.491-34.345,16.446-66.517,36.942-99.9,55.029-6.961,3.7-14.617,5.685-22.228,7.611-11.7-38.39-31.48-73.574-46.651-110.586a38.2,38.2,0,0,0,2.535-5.34c-.5,20.354,19.291,20.069,22.025.761-1.128,10.064,6.483,31.619,17.467,17.476,2.576-3.553,3.49-8.1,3.927-12.692q.847,4.759,1.916,9.479c2.819,6.236,10.517-1.346,12.3-4.6a6.093,6.093,0,0,0,2.7-1.231c19.424,2.7,42.3,2.542,56.553-12.792,24.174,9.274,50.929.965,75.377-2.737,49.748-5.72,99.7-14.439,149.894-13.773,22.411,1.3,48.851,4.92,63.026,24.042,18.184,27.566,7.906,64.8-12.153,88.656-48.251,61.1-213.875,87.657-291.529,96.757m1.357,22c.878-.234,1.763-.447,2.642-.655,14.084,11.726,80.412,42.175,75.367,60.364-1.783,2.261-6.051,2.774-8.749,3.506-4.7,1.27-9.445,2.373-14.236,3.247-15.487,2.815-31.526,3.308-46.992.091-5.69-.864-10.826-3.292-16.009-5.64-16.746-7.367-35.189-15.506-51.854-22.812-21.171-8.393-58.306-24.931-43.033-52.844,14.47,16.279,32.837,14.856,42.089-5.375,3.191-6.137,5.975-14.414,13.469-16.9,3.953-2.672,9.008-3.226,12.311-.249a4.918,4.918,0,0,0,.568-1.351c3.724,5.3,6.936,10.878,11.3,15.725-1.5.076-17.1,11.625-12.493,11.63a80.947,80.947,0,0,1,17.02-6.768,134.377,134.377,0,0,0,14.038,12.163,57.324,57.324,0,0,0-12.57,11.254.419.419,0,0,0,.513.65,113.079,113.079,0,0,1,16.619-6.036M516.244,730.7c-53.871,24.2-110.9-2.749-156.842-31.475-10.6-5.919-24.549-14.312-22.405-28.249,7.809,11.426,20.684,17.93,33.04,23.569,20.76,9.384,41.656,18.468,62.467,27.736,1.966,6.524,11.365,6.773,17.046,8.22a135.392,135.392,0,0,0,76.266-7.311c-1.377,4.075-5.883,5.95-9.572,7.509M301.309,636.479q-2,.251-3.993.472a3.954,3.954,0,0,0-2.632-4.065,36.934,36.934,0,0,0,.64-11.381c2.225,5.746,9.409,4,13.972,2.342q9.778-2.652,19.439-5.706a97.464,97.464,0,0,0,8.541,13.642c-12.042,1.072-23.971,3.2-35.967,4.695m-5.3-18.087a5.475,5.475,0,0,0-.788,2.2,36.169,36.169,0,0,0-1.926-8.205q1.356,3,2.713,6.005m-7.6-15c-5.924-7.723-16.873-14.033-26.994-11.884a.685.685,0,0,0,0,1.316c13.6,1.849,25.536,12.631,26.008,26.577,1.073,6.31-3.317,12.5-1.839,18.56-.295.02-.589.036-.879.056a9.231,9.231,0,0,1-.331,1.082c1.469.244,1.9,2.606.168,3.028a17.291,17.291,0,0,1-3.19.437c-5.543-1.5-11.391-1.844-16.69-4.054-5.243-2.317-3.932-8.83-5.782-13.337A134.467,134.467,0,0,0,254,609.805a.376.376,0,0,0-.732.091c-1.387,9.958-1.341,20.079-1.006,30.113-1.819.188-3.628.391-5.442.615.117-2.8-8.291-36.947-12.722-28.183,2.23,9.633,2.5,19.7,2.738,29.61a232.6,232.6,0,0,0-38.725,9.791c-8.886,2.693-19.455,10.659-28.081,3.455-6.681-5.523-8.932-15.161-8.3-23.366,8.688-48.526,77.308-54.2,117.816-50.609q5.739,13.238,11.67,26.4a32.525,32.525,0,0,0-2.8-4.334M150.25,630.987c-.742-11.02,1.113-24.738,9.277-32.948,18.687-15.8,44.852-20.77,68.2-26.491a254.282,254.282,0,0,1,32.974-4.283c3.927-.31,8.917.579,11.69-2.632q2.142,5.076,4.324,10.136C230.23,568.682,133.24,589.838,160.4,653.525c-5.752-6.234-9.562-13.82-10.151-22.538m230.964-36.429a67.752,67.752,0,0,0,8.175,15.09,29.3,29.3,0,0,0-9.293,10.339c-14.328,37.485-29.651,17.406-48.688-2.708,16.111-6.082,37.45-10.634,49.806-22.721m-238.483,28.8c-37.257-36.8-44.487-98.119-30.723-146.312,1.224-17.872,7.474-34.9,13.073-51.824a783.349,783.349,0,0,1,69.4-147.333c34.889,9.584,69.717,19.422,104.688,28.692,4.816,1.046,9.638,3.113,14.582,3.413,1.768,1.126,3.541,2.368,5.38,3.458-2.678,13.118-.208,26.51.417,39.708.569,10.39-.554,20.564-1.931,30.844-1.539,14.953-7.875,63.594,4.822,72.5,4.3,2.077,8.149-4.074,10-2.382a20.479,20.479,0,0,0,4.5-4.354c4.9,15.854,12.915,30.564,17.864,46.432,6.584,23.32,28.208,61.075,23.407,83.319-3.714,13.738-19.962,16.7-31.688,21.192-13.55,4.715-27.253,9.044-41.179,12.554-6.8-14.429-13.3-28.991-19.672-43.608-29.143-67.452-54.953-136.3-78.019-205.98-.432-1.546-5.736-18.3-6.707-13.627-.081-.481-.686-1.722-.914-.661,3.912,16.36,7.88,32.715,12.173,48.986-10.548-1.477-21.888-2.052-31.541,3.118-.5.265-.132.92.36.841,11.432-1.982,22.457,1.762,33.437,4.449,15.42,52.489,35.316,103.648,56.375,154.166-6.513-2.078-14.074.219-20.871.381a266.358,266.358,0,0,0-62.8,14.185c-25.424,8.241-43.4,18.992-44.431,47.845M122.219,240.327c-6.259-6.741-11.178-15.349-10.227-24.483,3.76-5.015,5-11.556,7.194-17.352,8.561-24.253,16.507-48.69,25.825-72.683,19.82,6.1,39.319,13.407,57.712,23.011q5.076,2.59,10.04,5.375c3.465,1.942,7.245,5.315,11.4,4.349-4.542,6.431-13.9,13.122-15.476,20.554-.34,2.352,1.326,4.535,3.887,4.009,40.082,28.472,81.474,56.342,119.361,88.057,28.371,22.462,50.152,40.679,59.881,77.123,6.559,23.607,6.579,48.28,5.614,72.553-.188,4.719-.193,9.549-.574,14.3.569,3.554-.513,10.785-4.507,10.915a5.361,5.361,0,0,0,.828,2.357c-.127.17-.259.33-.4.5-.2-.971-.391-1.937-.574-2.908-3.109-13.773-3.526-29.753-3.008-44.417.218-4.2-6.229-4.1-6.59,0q-1.456,16.628-2.911,33.251c-1.164,7.182.671,16.575-5.071,22.036-5.838-5.4-3.907-16.035-3.623-23,.457-11.356.95-22.706,1.372-34.062.132-3.6-5.828-4.524-6.5-.866q-2.872,15.644-6.219,31.2c-1.346,4.009-2.271,22-9,18.873-4.009-2.737-1.118-18.787-1.646-24.1.249-10.52.4-21.025,1.169-31.52.315-4.234-6.58-5.135-7.525-1-1.534,6.691-3,13.383-4.334,20.119-2.921,11.356-1.86,26.75-12.407,34.3-4.131-29.5,1.813-58.79,2.647-88.183-.5-9.524-2.134-18.953-3.577-28.362-1.6-10.4-2.525-21.73,1.209-31.765-1.021-4.494-5.035,7.662-5.411,8.673-3.023-5.956-10.385-6.416-16.207-8.273-12.941-4.189-26.2-7.347-39.289-11.07Q213.2,273.365,161.031,259.22c-13.891-3.844-28.513-8.393-38.812-18.893m347.7,156.9c-4.791-25.97-4.659-52.284-2.611-78.539,2.251-40.718,4.435-81.446,6.773-122.159,10.146,73.689,20.963,147.293,29.234,221.217.589,5.145.5,10.59,3.095,15.179-14.348,1.922-29.641,3.859-43.592-1.021a57.5,57.5,0,0,0,7.1-34.678m72.5-182.916c10.847,69.84,4.659,140.907,15.179,210.667-14.595,1.636-29.08,4.058-43.525,6.721,1.581-8.618-1.417-17.517-1.935-26.195-7.845-61.9-16.507-123.756-27.985-185.113-2.815-14.684-5.66-29.308-8.922-43.911.493-8.843.925-17.686,1.209-26.535A145.948,145.948,0,0,1,528.9,130.184c5.019,27.966,10.034,55.913,13.515,84.129M416.845-5.153c-.635-1.086-1.24-2.2-1.819-3.323a45.79,45.79,0,0,1,5.8.465c-.086,3.108.086,6.241.122,9.374-.966-2.292-2.855-4.384-4.105-6.516M744.457,432.512c-46.331-33.691-122.43-12.226-176.1-8.763-10.233-67.1-6.056-135.292-15.591-202.5C543.979,154.107,534.717,86.028,512.657,21.7c-9.1-24.874-24.855-32.26-50.787-32.06-13.159-.515-27.075-2.622-39.863-2.323a21.306,21.306,0,0,0-8.266,1.547,85.845,85.845,0,0,1-6.463-25.3.5.5,0,0,0-.97-.125,41.292,41.292,0,0,0-1.692,23.7C405.8-7.194,412.846,15.1,421.031,6.378c.65,18.292-3.369,40.138-21.288,49.632-31.312,13.653-74.6,1.221-92.733-27.756C303.5,22.463,300.481,16.3,296.6,10.742,323.644,3.085,338.825-29.32,332.454-54c-3.938,19.193-11.117,40.638-29,51.388-65.1-.145-119.234,29.508-149.82,86.621A303.763,303.763,0,0,0,137.05,109.69c-2.729,5.866-10.72,14.023-3.938,19.688-7.834,20.91-14.785,42.109-22.132,63.184-2.018,7.021-6.631,14.389-5.711,21.77-1,4.549-.95,9.93,1.331,14.3,2.164,7.8,7.021,18.287,15.074,21.6,6.834,6.241,15.476,10.54,24.489,13.778-24.037,62.819-33.187,130.568-41.332,196.939-7.982,58.064-12.1,128.7,37.912,170.658.97,12.006,8.093,27.309,22.177,27.436,9.754,9.582,21.644,4.324,32.5-.361,18.326-6.783,37.546-10.548,56.645-12.646a5.661,5.661,0,0,0,7.2-.528c11.569-2.667,27.6,8.134,29.941-1.651,14.917-1.448,29.671-4.161,44.573-5.741-6.28,8.149-5.828,20.165-1.1,28.965-12.046,23.7,16.014,37.419,33.172,47.144,23.162,13.413,47.352,26.14,73.842,31.7a131.6,131.6,0,0,0,70.159-4.415c11.808-2.967,28.3-12.712,21.293-26.44,8.882-26.125-53.489-53.195-71.836-66.278,7.5-.935,7.773-16.5-11.731-7.555q-3.536-2.37-6.966-4.862c78.893-9.069,229.559-34.015,286.656-87.947,31.368-27.73,49.466-83.823,15.176-115.918" transform="translate(-100 65.686)"/></g><g transform="translate(433.886 67.33)"><g transform="translate(0)"><path class="a" d="M275.072,253.972c-3.8-27.446-12.505-54.094-13.754-81.952q-1.115-17.881-2.229-35.765a7.267,7.267,0,0,0-13.649-3.361c-8.4-9.313-23.435-7.941-34.907-7.659C143,127.629,78.82,173.29,55.637,236.955a6.113,6.113,0,0,0,.241,4.579c-10.806,36.034,27.409,59.237,53.472,75.3a118.628,118.628,0,0,0,37.034,26.813,129.935,129.935,0,0,0,51.948,12.234c3.915.09,6.267-3.076,6.55-6.352,5.69-1.324,15.427.2,18.436-5.627,34.315-14.9,56.674-52.681,51.752-89.934Z" transform="translate(-28.521 -90.422)"/><path class="b" d="M242.495,134.217c-.1-.889,1.187-.917,1.452-.2,2.175,5.925,4.43,11.809,6.152,17.884,1.661,5.855,2.858,11.843,4.069,17.8q3.015,14.841,5.167,29.86c3.054-2.385,7.049-2.6,10.81-.746a4.471,4.471,0,0,1,2.018,4.959,40.466,40.466,0,0,1-1.253,4.254,11.228,11.228,0,0,1,2.629,3.443c1.732,3.518,1.174,7.212-.379,10.568.118.2.235.4.345.615,2.249,4.367,1.046,8.278-.6,12.538-1.231,3.189-.544,6.779-3.2,9.186a24.39,24.39,0,0,1-4.322,8.211,5.393,5.393,0,0,1-1.957,2.007,90.843,90.843,0,0,1-1.627,13.961c-3.606,17.943-15.052,33.931-29.221,45.207a94.015,94.015,0,0,1-47.72,19.76,86.992,86.992,0,0,1-25.538-.769l-1.054-.188c-7.808-1.416-17.257-3.761-22.656-9.651-2.84-3.1-1.179-9.915,3.84-9.271a29.947,29.947,0,0,1,7.479,1.749c1.953.766,3.909,1.5,5.915,2.128a70.248,70.248,0,0,0,11.8,2.644,78.843,78.843,0,0,0,25.151-.831,86.072,86.072,0,0,0,40.77-19.97c13.171-11.892,20.892-27.283,22.029-45.034,1.265-19.77-1.017-40.015-2.912-59.683q-1.479-15.346-3.744-30.608C244.466,154.113,243.583,144.193,242.495,134.217ZM125.925,70.378l.638-.1c25.357-3.859,52.037-3.585,75.872,6.879A87,87,0,0,1,215.684,84.4c3.016-.315,6.049-.57,9.027-.612,3.748-.049,7.406,1.9,7.867,5.689,3.512.437,6.746,1.729,8.815,4.314a8.343,8.343,0,0,1,1.62,3.384,27.752,27.752,0,0,1,6.284,2.323,6.542,6.542,0,0,1,2.985,7.335q-.3.88-.678,1.718l-.2.417.115.158a6.758,6.758,0,0,1-2.39,9.106,22.836,22.836,0,0,1-7.31,3.057c.212,1.031.406,2.069.564,3.118.061.425-.485.729-.728.309a62.852,62.852,0,0,0,2.312,6.031c.545,1.243-1.2,2.347-1.868,1.091-1.771-3.349-2.87-6.782-4.478-10.234a12.5,12.5,0,0,1-4.392-1.086,4.865,4.865,0,0,1-2.153-2c-.031.036-.049.079-.079.121-4.786,6.157-14.141,8.317-21.372,10.264a166.776,166.776,0,0,1-23.688,4.337c-13.929,1.656-27.966,1.965-41.961,2.609-.927.042-1.852.089-2.778.133a38.572,38.572,0,0,1-20.516,9.027,37.319,37.319,0,0,1-12.574-.616,12.749,12.749,0,0,1-5.627,3.346A25.581,25.581,0,0,1,90.974,167.6l.119.473c1.665,6.785,1.643,14.2-4.324,18.918a14.526,14.526,0,0,1-2.619,1.639l.2.469c3.082,7.2,4.067,15.16-1.727,21.137a5.354,5.354,0,0,1-8.235-.932l-.086-.141c-.1-.166-.2-.325-.3-.487a1.482,1.482,0,0,1-.754.744c-2.2.947-3.082.249-5.09-.728a31.28,31.28,0,0,0-5.817-2.117,33.609,33.609,0,0,0-4.9-.9C47.094,209.623,40.409,221.756,42,233.142c.861,6.2,4.265,12.339,10.2,14.911a16.238,16.238,0,0,0,8.456,1.219c3.8-.516,6.727-2.911,10.664-1.541a3.687,3.687,0,0,1,2.609,3.428,7.325,7.325,0,0,1-2.354,6.041c2.76,2.305,4.987,5.508,7.383,8.063,3,3.2,6.036,6.393,9.275,9.342a82.424,82.424,0,0,0,9.755,7.7l.362.238c4.317,2.811,9.756,5.307,9.963,11.184a5,5,0,0,1-2.463,4.3c-5.441,3.373-11.362-1.056-15.627-4.3q-2.575-1.957-4.993-4.059a7.1,7.1,0,0,1-3.464-.631,24.772,24.772,0,0,1-2.3-1.165,8.131,8.131,0,0,1-6.649-1.207,18.357,18.357,0,0,1-8.1.212,13.55,13.55,0,0,1-5.915-2.985A12.748,12.748,0,0,1,48.1,282.7a11.1,11.1,0,0,1-4.507-5.138,4.614,4.614,0,0,1-.746-2.387v-.337a11.009,11.009,0,0,1-8.25-3.306,11.415,11.415,0,0,1-3.258-7.59,14.94,14.94,0,0,1-7.807-5.278,15.36,15.36,0,0,1-2.135-14.869c-.116-.261-.219-.528-.31-.795a22.2,22.2,0,0,1-4.416-13.243,12.21,12.21,0,0,1,.261-2.153,8.8,8.8,0,0,1-4.908-7.171,9.506,9.506,0,0,1,2.372-6.843,11.974,11.974,0,0,1-.9-6.024,11.72,11.72,0,0,1,2.087-5.489,8.441,8.441,0,0,1,.1-1.7,15.9,15.9,0,0,1-.248-1.74c-.516-6.5,3.973-12.194,9.439-15.2a30.535,30.535,0,0,1,4.544-1.978c1.128-.4,2.827-.534,3.822-1.268-.042-.03.37-.564.443-.849a10.633,10.633,0,0,0,.207-1.056,35.881,35.881,0,0,0,.012-4.562,164.976,164.976,0,0,1,.8-20.559c1.341-12.642,4.647-25.011,11.089-36.058A81.88,81.88,0,0,1,67.071,93.55C83.975,80.639,105.07,73.619,125.925,70.378ZM47.585,227.6c-2.2-5.289,8.159-5.341,10.9-5.09l.081.008c6.165.613,15.8,3.579,18.326,9.8,1.044,2.575-2.047,5.366-4.52,4.519-2.421-.829-3.779-2.609-5.722-4.166-.51-.409-1.041-.79-1.582-1.159a5.749,5.749,0,0,0,1.374,2.372l.149.141c2.983,2.68-2.352,6.892-4.332,3.343a9.409,9.409,0,0,1-1.148-6.105,6.811,6.811,0,0,1,.514-1.763c-.2-.1-.39-.205-.589-.3l-.355-.165c-2.375-1.077-12.507-5.307-12.425-1.525C48.264,227.926,47.721,227.927,47.585,227.6Z" transform="translate(-12 -68.001)"/></g><path class="b" d="M123.436,142.344a.416.416,0,0,1,.4.69c-1.3,1.15-2.119,3.293-3.065,4.754-.9,1.39-1.767,2.765-2.558,4.22a46.982,46.982,0,0,0-2.434,4.98l-.137.348h0c.207.492.368.978.488,1.3l.034.09c1.179,3.012-1.3,6.359-4.088,7.2-4.776,1.44-8.874-2.482-8.988-7.147-.09-3.669,2.4-6.939,4.925-9.365a28.633,28.633,0,0,1,7.456-5.251,17.269,17.269,0,0,1,3.818-1.354C120.644,142.52,122.108,142.7,123.436,142.344Zm-9,13.3a2.329,2.329,0,0,1,.9,1.04A1.653,1.653,0,0,0,114.434,155.642Zm2.988-50.985c4.158,2.527,10.494,8.421,6.021,14.687-5.265,5.524-12.846-.81-16.582-3.675-3.464-2.22-7.356,3.49-4.142,6.083,26.994,19.985,37.949-16.434,16.806-20.067C117.2,101.286,116.334,103.876,117.423,104.658ZM83.243,80.389l.735-.062c3.187-.281,6.413-.709,9.556.012,4.222.969,3.912,7.111,0,8.24-3.448.995-7.269.564-10.828.6-.56.006-1.119.02-1.678.029a8.4,8.4,0,0,1-1.215,3.625,18.149,18.149,0,0,1-1.691,2.335,4.428,4.428,0,0,1-6.244,0,6.954,6.954,0,0,1-1.931-4.4,5.931,5.931,0,0,1,.154-1.353l-1.943.034a81.367,81.367,0,0,1-14.215-.715,1.834,1.834,0,0,1-.727-3.55c6.231-2.437,13.193-3.155,19.806-3.886C76.419,80.917,79.836,80.657,83.243,80.389Zm53.087-2.518.169-.017c4.124-.422,8.669-1.154,12.8-.733a4.8,4.8,0,0,1,0,9.591,36.857,36.857,0,0,1-7.018-.1,4.188,4.188,0,0,1-3.152,6.045c-2.718.365-5.536-2.277-4.644-5.11l.042-.125c.173-.492.33-1.041.515-1.584l-.983-.083c-2.941-.26-7.023-.791-8.1-3.113a1.694,1.694,0,0,1,.252-1.948c2.062-2.454,7.143-2.535,10.123-2.823ZM92.481,58.775c2.984-1.084,6.086,1.453,6.473,4.313.445,3.3-1.931,5.465-4.944,5.858l-.151.018c-6.649.732-13.249,2.071-19.907,2.829-3.024.343-6.071.569-9.115.651l-2.176.049c-2.666.067-5.525.128-7.987-.79l.009-.017h0a.916.916,0,0,1-.227-1.647c2.62-1.853,6.153-2.553,9.2-3.434,3.067-.886,6.157-1.7,9.254-2.47C79.421,62.526,86.178,61.065,92.481,58.775Zm27.524.77c.791-4.169,6.7-4.616,8.865-1.583,1.4.481,3.457.983,4.731,1.361,2.219.658,4.44,1.312,6.665,1.946,4.609,1.313,9.106,2.977,13.637,4.528a.415.415,0,0,1-.11.812,110.02,110.02,0,0,1-18.9.942l-1.3-.059C127.978,67.275,118.46,67.691,120,59.546Z" transform="translate(59.545 34.077)"/><path class="b" d="M207.524,45.928A43.856,43.856,0,0,1,200.7,58.144c-11.725,9.929-23.118,4.431-28.9-9.025-2.2-9.51,3.638-19.754,9.823-26.75,8.931-8.952,23.507-4.254,27.613,6.388a32.711,32.711,0,0,1,.472,4.125,36.315,36.315,0,0,1-2.179,12.5m-112.7-8c15.446-18.373,44.343-19.355,43.606,8.922C135.108,82.1,79.235,73.312,94.82,37.382ZM212.382,22.055a25.653,25.653,0,0,0-1.8-2.652c-.242-.144-.382-1.424-1.273-1.519C197.4,4.746,176.482,12.2,168.923,25.291a21.409,21.409,0,0,0-3.337,5.64c-7.448-1.366-16.13-1.1-23.058,1.712-6.869-17.935-27.663-19.536-41.366-11.873-8.523,4.192-14.05,12.971-22.34,17.793-19.486,1.4-40.4-2.964-59.534,1.924-15.091,3.137-2.476,10.779.055,5.679,18.04-5.33,39.413-.826,58.144-2.027,1.948,3.294,5.683,5.99,9.4,5.875,4.021,35.637,55.991,29.728,57.784-1.951a23.216,23.216,0,0,1,8.182-8.3,17.574,17.574,0,0,0,3.947-1.237,10.044,10.044,0,0,1,7.238,2.332c6.59,39.544,44.559,34.938,51.345.3a4.511,4.511,0,0,0,.8-1.483c2.322-3.071,8.008-4.212,7.1-9.4C222.482,25.1,215.933,25.158,212.382,22.055Z" transform="translate(18.052 79.077)"/><g transform="translate(114.047 161.364)"><path class="b" d="M212.448,126.8c1.225,1.162,3.884,3.719,6.431,4.843h2.382a11.678,11.678,0,0,0,1.512-.407,9.779,9.779,0,0,0,.455-5.312c-1.8-10.341-3.409-20.812-2.552-31.336.807-9.923,3.663-19.8,2.892-29.814-1.076-23.639-23.9-40.007-43.884-35.222a17.9,17.9,0,0,0-7.35,2.246c-31.172-13.077-69.7,9.018-62.444,45.163,1.391,9.773,3.634,19.042,2.945,29a120.76,120.76,0,0,1-1.979,14.172c-.669,3.52-2.438,7.86-.812,11.334,6.531,4.124,13.34-4.447,17.7-11.8,2.283-6.183,4.18-12.513,6.319-18.744,3.859-11.2,4.754-17.384,17.49-20.438a43.664,43.664,0,0,0,14.622-8.29c3.236-1.55,5.081-4.655,6.184-7.794.55,1.546-.21,3.422-.348,5.027,9.237,12.243,20.668,9.925,24.78,18.439,3.147,8.014,4.915,16.558,7.323,24.851.329,1.135,6.424,12.277,8.332,14.086" transform="translate(-109 -28)"/></g></g></g></svg>